<?xml version="1.0" standalone="no"?>
<!DOCTYPE svg PUBLIC "-//W3C//DTD SVG 1.1//EN" "http://www.w3.org/Graphics/SVG/1.1/DTD/svg11.dtd" >
<svg xmlns="http://www.w3.org/2000/svg">
<defs>
<font id="kendoui" horiz-adv-x="512">
<font-face units-per-em="512" ascent="480" descent="-32" />
<missing-glyph horiz-adv-x="512" />
<glyph unicode="&#x20;" d="" horiz-adv-x="256" />
<glyph unicode="&#xe000;" d="M177.316 319.308v-246.026l212.779 123.013z" horiz-adv-x="568" />
<glyph unicode="&#xe001;" d="M283.705 302.684l-123.013-212.779h246.026z" horiz-adv-x="568" />
<glyph unicode="&#xe002;" d="M160.692 302.684l123.013-212.779 123.013 212.779h-246.026z" horiz-adv-x="568" />
<glyph unicode="&#xe003;" d="M390.095 319.308l-212.779-123.013 212.779-123.013v246.026z" horiz-adv-x="568" />
<glyph unicode="&#xe004;" d="M177.316 302.684l212.779-212.779v212.779h-212.779z" horiz-adv-x="568" />
<glyph unicode="&#xe005;" d="M177.316 302.684v-212.779l212.779 212.779h-212.779z" horiz-adv-x="568" />
<glyph unicode="&#xe006;" d="M390.095 302.684l-212.779-212.779h212.779v212.779z" horiz-adv-x="568" />
<glyph unicode="&#xe007;" d="M177.316 302.684v-212.779h212.779z" horiz-adv-x="568" />
<glyph unicode="&#xe008;" d="M390.095 338.147v-283.705h35.463v283.705h-35.463zM390.095 196.295l-212.779 123.013v-246.026z" horiz-adv-x="568" />
<glyph unicode="&#xe009;" d="M141.853 302.684v-35.463h283.705v35.463h-283.705zM283.705 267.221l-123.013-212.779h246.026z" horiz-adv-x="568" />
<glyph unicode="&#xe00a;" d="M160.692 338.147l123.013-212.779 123.013 212.779h-246.026zM283.705 125.368h-141.853v-35.463h283.705v35.463h-141.853z" horiz-adv-x="568" />
<glyph unicode="&#xe00b;" d="M141.853 338.147v-283.705h35.463v283.705h-35.463zM177.316 196.295l212.779-123.013v246.026z" horiz-adv-x="568" />
<glyph unicode="&#xe00c;" d="M248.243 302.684v-212.779l106.389 106.389z" horiz-adv-x="568" />
<glyph unicode="&#xe00d;" d="M283.705 231.757l-106.389-106.389h212.779z" horiz-adv-x="568" />
<glyph unicode="&#xe00e;" d="M177.316 267.221l106.39-106.389 106.389 106.389h-212.779z" horiz-adv-x="568" />
<glyph unicode="&#xe00f;" d="M319.169 302.684l-106.389-106.389 106.389-106.389v212.779z" horiz-adv-x="568" />
<glyph unicode="&#xe010;" d="M424.45 158.615l-134.649 134.649q-4.987 4.433-11.36 4.433t-10.805-4.433-4.433-10.805 4.433-10.805l125.23-125.23-125.23-125.23q-4.433-4.433-4.433-11.082t4.433-11.082 10.805-4.433 11.36 4.433l134.649 135.203q4.987 4.987 4.433 12.19 0.554 7.204-4.433 12.19z" horiz-adv-x="568" />
<glyph unicode="&#xe011;" d="M493.16 89.905l-134.649 134.649q-5.541 4.987-12.745 4.433-7.204 0.554-12.19-4.433l-134.649-134.649q-4.433-4.433-4.433-11.082t4.433-11.082 10.805-4.433 11.359 4.433l124.676 125.23 125.23-125.23q4.433-4.433 11.082-4.433t11.082 4.433 4.433 11.082-4.433 11.082z" horiz-adv-x="568" />
<glyph unicode="&#xe012;" d="M493.16 224.554q-4.433 4.433-11.082 4.433t-11.082-4.433l-125.229-125.23-124.675 125.23q-4.987 4.433-11.359 4.433t-10.805-4.433-4.433-10.805 4.433-10.805l134.649-135.204q4.987-4.987 12.19-4.433 7.204-0.554 12.745 4.433l134.649 135.203q4.433 4.433 4.433 10.805t-4.433 10.805z" horiz-adv-x="568" />
<glyph unicode="&#xe013;" d="M299.221 146.424l125.23 125.23q4.433 4.433 4.433 10.805t-4.433 10.805-11.082 4.433-11.082-4.433l-134.649-134.649q-4.987-4.987-4.433-12.19-0.554-7.204 4.433-12.19l134.649-135.203q4.433-4.433 11.082-4.433t11.082 4.433 4.433 11.082-4.433 11.082z" horiz-adv-x="568" />
<glyph unicode="&#xe014;" d="M227.463 343.411q-4.71 4.71-11.083 4.71t-10.805-4.987l-134.649-134.649q-5.541-4.987-4.987-12.19-0.554-7.204 4.987-12.19l134.649-134.649q4.433-4.987 10.805-4.987t11.083 4.71 4.71 11.082-4.987 10.805l-124.675 125.229 124.675 125.23q4.987 4.433 4.987 10.805t-4.71 11.083zM496.485 208.485l-134.649 134.649q-4.433 4.987-10.805 4.987t-11.082-4.71-4.71-11.083 4.987-10.805l124.675-125.23-124.675-125.23q-4.987-4.433-4.987-10.805t4.71-11.082 11.082-4.71 10.805 4.987l134.649 134.649q5.541 4.987 4.987 12.19 0.554 7.204-4.987 12.19z" horiz-adv-x="568" />
<glyph unicode="&#xe015;" d="M282.043 414.060q-6.095-0.554-10.528-4.987l-134.649-134.649q-4.987-4.433-4.987-10.805t4.71-11.083 11.083-4.71 10.805 4.987l125.23 124.676 125.23-124.676q4.433-4.987 10.805-4.987t11.082 4.71 4.71 11.083-4.987 10.805l-134.649 134.649q-4.987 5.541-12.19 4.987h-1.663zM147.671 144.762q-6.373 0-11.083-4.71t-4.71-11.082 4.987-10.805l134.65-134.649q4.987-5.541 12.19-4.987 7.204-0.554 12.19 4.987l134.649 134.649q4.987 4.433 4.987 10.805t-4.71 11.082-11.082 4.71-10.805-4.987l-125.229-124.675-125.23 124.675q-4.433 4.987-10.805 4.987z" horiz-adv-x="568" />
<glyph unicode="&#xe016;" d="M283.705 444.537l-97.524-105.835h62.060v-106.389h-106.389v62.060l-106.389-98.078 106.389-98.078v63.169h106.389v-107.498h-62.060l97.524-105.835 98.632 105.836h-63.169v107.498h107.498v-63.169l105.281 98.078-105.281 98.078v-62.060h-107.498v106.39h63.169z" horiz-adv-x="568" />
<glyph unicode="&#xe017;" d="M70.927 409.073v-177.316l63.723 63.723 99.186-99.74-98.632-99.186-64.277 64.277v-177.316h177.316l-63.169 63.169 99.186 98.632 98.632-98.078-63.723-63.723h177.316v177.316l-63.723-63.723-98.078 98.632 98.632 99.186 63.169-63.169v177.316h-177.316l64.277-64.277-99.186-98.632-99.74 99.186 63.723 63.723h-177.316z" horiz-adv-x="568" />
<glyph unicode="&#xe018;" d="M319.169 409.073l63.723-63.723-248.243-248.243-63.723 63.723v-177.316h177.316l-63.723 63.723 248.243 248.243 63.723-63.723v177.316h-177.316z" horiz-adv-x="568" />
<glyph unicode="&#xe019;" d="M70.927 409.073v-177.316l63.723 63.723 248.243-248.243-63.723-63.723h177.316v177.316l-63.723-63.723-248.243 248.243 63.723 63.723h-177.316z" horiz-adv-x="568" />
<glyph unicode="&#xe01a;" d="M141.853 294.373l-106.389-98.078 106.389-98.078v63.169h284.814v-63.169l105.281 98.078-105.281 98.078v-62.060h-284.814v62.060z" horiz-adv-x="568" />
<glyph unicode="&#xe01b;" d="M283.705 444.537l-97.524-105.835h62.060v-284.814h-62.060l97.524-105.835 98.632 105.836h-63.169v284.814h63.169z" horiz-adv-x="568" />
<glyph unicode="&#xe01c;" d="M248.243 470.58v-64.277q-59.29-8.312-108.052-42.666t-76.745-87.827-27.983-114.978q0-67.601 33.247-124.675t90.32-90.32 124.676-33.247 124.675 33.247 90.32 90.32 33.247 124.675q0 87.55-55.411 156.26l-57.627-33.801q47.099-52.087 47.099-122.459 0-49.316-24.381-91.428t-66.493-66.493-91.428-24.381-91.428 24.381-66.493 66.493-24.381 91.428q0 65.94 41.836 116.087t105.005 62.892v-64.277l169.005 97.524z" horiz-adv-x="568" />
<glyph unicode="&#xe01d;" d="M319.169 470.58l-169.005-97.524 169.005-97.524v64.277q63.169-12.745 105.005-62.892t41.836-116.087q0-49.316-24.381-91.428t-66.493-66.493-91.428-24.381-91.428 24.381-66.493 66.493-24.381 91.428q0 70.373 47.099 122.459l-57.627 33.801q-55.411-68.71-55.411-156.26 0-67.601 33.247-124.675t90.32-90.321 124.675-33.247 124.675 33.247 90.32 90.32 33.247 124.675q0 61.507-27.983 114.978t-76.745 87.827-108.052 42.666v64.277z" horiz-adv-x="568" />
<glyph unicode="&#xe01e;" d="M248.797 391.896v-58.182q-60.953-12.19-101.403-60.952t-40.45-112.485q0-73.143 51.809-124.952t124.953-51.81 124.952 51.81 51.81 124.952q0 60.952-37.125 108.606l-41.558-23.827q31.584-36.572 31.584-84.779 0-53.749-37.957-91.705t-91.706-37.957-91.706 37.957-37.957 91.706q0 44.329 26.597 78.961t68.156 46.269v-54.857l139.637 80.9z" horiz-adv-x="568" />
<glyph unicode="&#xe01f;" d="M318.615 391.896l-139.637-80.347 139.637-80.9v54.857q41.558-11.636 68.156-46.268t26.598-78.961q0-53.749-37.957-91.705t-91.706-37.957-91.706 37.957-37.957 91.706q0 48.208 31.584 84.779l-41.559 23.827q-37.126-47.654-37.126-108.606 0-73.143 51.809-124.952t124.953-51.81 124.952 51.81 51.81 124.952q0 63.723-40.45 112.485t-101.403 60.952v58.182z" horiz-adv-x="568" />
<glyph unicode="&#xe020;" d="M231.065 335.93l-80.346-139.637h58.182q12.19-60.952 60.952-101.403t112.485-40.45h43.221v47.099h-43.221q-44.329 0-78.961 26.598t-46.269 68.156h54.857z" horiz-adv-x="568" />
<glyph unicode="&#xe021;" d="M382.337 338.147q-63.723 0-112.485-40.45t-60.952-101.403h-58.182l80.346-139.637 80.9 139.637h-54.857q11.637 41.559 46.269 68.156t78.961 26.598v0h43.221v47.099h-43.221z" horiz-adv-x="568" />
<glyph unicode="&#xe022;" d="M141.853 338.147v-43.221q0-63.723 40.45-112.485t101.403-60.952v-58.182l139.637 80.346-139.637 80.9v-54.857q-41.559 11.637-68.156 46.269t-26.597 78.961v0 43.221h-47.1z" horiz-adv-x="568" />
<glyph unicode="&#xe023;" d="M378.459 338.147v-43.221q0-44.329-26.598-78.961t-68.156-46.269v54.857l-139.637-80.9 139.637-80.346v58.182q60.952 12.19 101.402 60.952t40.45 112.485v43.221h-47.099z" horiz-adv-x="568" />
<glyph unicode="&#xe024;" d="M283.705 329.281v-58.182q-60.952-12.19-101.403-60.952t-40.45-112.485v-43.221h47.1v43.221q0 44.329 26.597 78.961t68.156 46.269v-54.857l139.637 80.9z" horiz-adv-x="568" />
<glyph unicode="&#xe025;" d="M283.705 329.281l-139.637-80.346 139.637-80.901v54.857q41.558-11.637 68.156-46.269t26.598-78.961v0-43.221h47.099v43.221q0 63.723-40.45 112.485t-101.402 60.952v58.182z" horiz-adv-x="568" />
<glyph unicode="&#xe026;" d="M336.346 335.93l-80.9-139.637h54.857q-11.637-41.558-46.269-68.156t-78.961-26.598v0h-43.221v-47.099h43.221q63.723 0 112.485 40.45t60.952 101.403h58.182z" horiz-adv-x="568" />
<glyph unicode="&#xe027;" d="M141.853 338.147v-47.099h43.221q44.329 0 78.961-26.598t46.269-68.156h-54.857l80.9-139.637 80.346 139.637h-58.182q-12.19 60.952-60.952 101.403t-112.485 40.45h-43.221z" horiz-adv-x="568" />
<glyph unicode="&#xe028;" d="M284.26 427.36v-58.182q-60.952-12.191-101.403-60.952t-40.45-112.485q0-73.143 51.81-124.952t124.952-51.81q17.731 0 35.463 3.325v48.762q-17.178-4.987-35.463-4.987-53.749 0-91.706 37.957t-37.957 91.706q0 44.329 26.597 78.961t68.156 46.269v-54.857l139.637 80.9z" horiz-adv-x="568" />
<glyph unicode="&#xe029;" d="M319.169 373.611q-73.143 0-124.952-51.81t-51.81-124.952q0-63.723 40.45-112.485t101.403-60.952v-58.182l139.637 80.346-139.637 80.9v-54.857q-41.559 11.637-68.156 46.269t-26.597 78.961q0 53.749 37.957 91.706t91.706 37.957q17.731 0 35.463-4.987v48.762q-17.731 3.325-35.463 3.325z" horiz-adv-x="568" />
<glyph unicode="&#xe02a;" d="M132.987 336.485l-80.347-139.637h58.182q12.191-60.952 60.952-101.402t112.485-40.45q73.143 0 124.952 51.81t51.81 124.952q0 17.732-3.325 35.463h-48.762q4.987-17.177 4.987-35.463 0-53.749-37.957-91.706t-91.706-37.957q-44.329 0-78.961 26.598t-46.269 68.156h54.857z" horiz-adv-x="568" />
<glyph unicode="&#xe02b;" d="M434.424 336.485l-80.9-139.637h54.857q-11.637-41.558-46.269-68.156t-78.961-26.598q-53.749 0-91.706 37.957t-37.957 91.706q0 17.732 4.987 35.463h-48.762q-3.325-17.732-3.325-35.463 0-73.143 51.81-124.953t124.952-51.81q63.723 0 112.485 40.45t60.952 101.403h58.182z" horiz-adv-x="568" />
<glyph unicode="&#xe02c;" d="M284.26 337.593q-63.723 0-112.485-40.45t-60.953-101.402h-58.182l80.346-139.637 80.9 139.637h-54.857q11.637 41.559 46.269 68.156t78.961 26.598q53.749 0 91.706-37.957t37.957-91.706q0-17.731-4.987-35.463h48.762q3.325 17.731 3.325 35.463 0 73.143-51.81 124.952t-124.952 51.81z" horiz-adv-x="568" />
<glyph unicode="&#xe02d;" d="M283.151 337.593q-73.143 0-124.952-51.809t-51.809-124.952q0-17.731 3.325-35.463h48.762q-4.987 17.731-4.987 35.463 0 53.749 37.957 91.706t91.706 37.957q44.329 0 78.961-26.598t46.269-68.156h-54.857l80.9-139.637 80.346 139.637h-58.182q-12.19 60.952-60.952 101.403t-112.485 40.45z" horiz-adv-x="568" />
<glyph unicode="&#xe02e;" d="M283.151 427.36l-139.637-80.347 139.637-80.901v54.857q41.558-11.637 68.156-46.269t26.598-78.961q0-53.749-37.957-91.705t-91.706-37.957q-17.732 0-35.463 4.987v-48.762q17.732-3.325 35.463-3.325 73.143 0 124.953 51.81t51.81 124.952q0 63.723-40.45 112.485t-101.403 60.952v58.182z" horiz-adv-x="568" />
<glyph unicode="&#xe02f;" d="M248.243 373.611q-17.732 0-35.463-3.325v-48.762q17.732 4.987 35.463 4.987 53.749 0 91.705-37.957t37.957-91.705q0-44.329-26.598-78.961t-68.156-46.269v54.857l-139.637-80.9 139.637-80.346v58.182q60.952 12.19 101.403 60.952t40.45 112.485q0 73.143-51.81 124.952t-124.952 51.81z" horiz-adv-x="568" />
<glyph unicode="&#xe030;" d="M284.26 409.073q-88.104 0-150.719-62.614t-62.614-150.719 62.614-150.719 150.719-62.615 150.719 62.615 62.615 150.719-62.615 150.719-150.719 62.614zM395.637 297.143l43.221-43.221-190.614-190.614-118.58 119.688 43.221 43.221 75.359-76.467z" horiz-adv-x="568" />
<glyph unicode="&#xe031;" d="M284.26 409.073q-88.104 0-150.719-62.614t-62.614-150.719 62.614-150.719 150.719-62.615 150.719 62.615 62.615 150.719-62.615 150.719-150.719 62.614zM197.264 321.524l86.995-87.55 86.995 87.55 38.788-38.788-87.55-86.995 87.55-86.995-38.788-38.788-86.995 87.55-86.995-87.55-38.788 38.788 87.55 86.995-87.55 86.995z" horiz-adv-x="568" />
<glyph unicode="&#xe032;" d="M283.705 409.073q-88.104 0-150.441-62.337t-62.338-150.442 62.338-150.442 150.441-62.337 150.441 62.337 62.337 150.442-62.337 150.442-150.442 62.337zM248.243 338.147h70.926v-106.389h106.389v-70.926h-106.389v-106.389h-70.927v106.389h-106.389v70.927h106.389v106.39z" horiz-adv-x="568" />
<glyph unicode="&#xe033;" d="M283.705 409.073q-88.104 0-150.441-62.337t-62.338-150.442 62.338-150.442 150.441-62.337 150.441 62.337 62.337 150.442-62.337 150.442-150.442 62.337zM141.853 231.757h283.705v-70.926h-283.705v70.927z" horiz-adv-x="568" />
<glyph unicode="&#xe034;" d="M283.705 409.073q-88.104 0-150.441-62.337t-62.338-150.442 62.338-150.442 150.441-62.337 150.441 62.337 62.337 150.442-62.337 150.442-150.442 62.337zM248.243 302.684h70.926v-70.926h70.927v-70.926h-70.927v-70.927h-70.927v70.927h-70.927v70.927h70.927v70.927z" horiz-adv-x="568" />
<glyph unicode="&#xe035;" d="M283.705 409.073q-88.104 0-150.441-62.337t-62.338-150.442 62.338-150.442 150.441-62.337 150.441 62.337 62.337 150.442-62.337 150.442-150.442 62.337zM177.316 231.757h212.779v-70.926h-212.779v70.927z" horiz-adv-x="568" />
<glyph unicode="&#xe036;" d="M283.705 444.537q-67.601 0-124.675-33.247t-90.32-90.32-33.247-124.675 33.247-124.675 90.32-90.32 124.675-33.247 124.675 33.247 90.32 90.32 33.247 124.675-33.247 124.675-90.32 90.32-124.675 33.247zM283.705 373.057q73.143 0 124.952-51.81t51.81-124.952q0-52.087-28.26-95.308l-243.81 243.81q43.221 28.26 95.308 28.26zM135.203 291.601l243.81-243.81q-43.221-28.26-95.308-28.26-73.143 0-124.952 51.81t-51.809 124.952q0 52.087 28.259 95.308z" horiz-adv-x="568" />
<glyph unicode="&#xe037;" d="M428.883 350.337l-185.073-260.987-137.974 106.943-14.961-66.493 160.692-121.905 217.212 284.814z" horiz-adv-x="568" />
<glyph unicode="&#xe038;" d="M142.961 338.147l-1.108-1.108v-33.247l107.498-107.498-107.498-107.498v-33.247l1.108-1.108h35.463l106.389 106.389 106.389-106.389h34.355v36.572l-105.281 105.281 105.281 105.281v36.572h-34.355l-106.389-106.389-106.389 106.389h-35.463z" horiz-adv-x="568" />
<glyph unicode="&#xe039;" d="M248.243 373.611v-141.853h-141.853v-70.926h141.853v-141.853h70.926v141.853h141.853v70.927h-141.853v141.853h-70.927z" horiz-adv-x="568" />
<glyph unicode="&#xe03a;" d="M106.389 231.757v-70.926h354.632v70.927h-354.632z" horiz-adv-x="568" />
<glyph unicode="&#xe03b;" d="M248.243 302.684v-70.926h-70.927v-70.926h70.927v-70.927h70.926v70.927h70.927v70.927h-70.927v70.927h-70.927z" horiz-adv-x="568" />
<glyph unicode="&#xe03c;" d="M177.316 231.757v-70.926h212.779v70.927h-212.779z" horiz-adv-x="568" />
<glyph unicode="&#xe03d;" d="M177.316 338.147q-14.961 0-25.212-10.251t-10.251-25.212v-212.779q0-14.961 10.251-25.212t25.212-10.251h212.779q14.961 0 25.212 10.251t10.251 25.212v212.779q0 14.961-10.251 25.212t-25.212 10.251h-212.779z" horiz-adv-x="568" />
<glyph unicode="&#xe03e;" d="M177.316 338.147v-283.705h70.927v283.705h-70.927zM319.169 338.147v-283.705h70.927v283.705h-70.927z" horiz-adv-x="568" />
<glyph unicode="&#xe03f;" d="M283.705 338.147l-123.013-212.779h246.026zM159.584 54.442q-7.203 0-12.468-5.264t-5.264-12.467 5.264-12.467 12.468-5.264h248.243q7.204 0 12.467 5.264t5.264 12.467-5.264 12.467-12.467 5.264h-248.243z" horiz-adv-x="568" />
<glyph unicode="&#xe040;" d="M383.446 373.611l-106.389-106.389h-64.277q-14.961 0-25.212-10.251t-10.251-25.212v-70.927q0-14.961 10.251-25.212t25.212-10.251h64.277l106.389-106.389h42.113v354.632h-42.113z" horiz-adv-x="568" />
<glyph unicode="&#xe041;" d="M425.558 231.757q-14.961 0-25.212-10.251t-10.251-25.212 10.251-25.212 25.212-10.251 25.212 10.251 10.251 25.212-10.251 25.212-25.212 10.251zM206.13 267.221h-64.277q-14.961 0-25.212-10.251t-10.251-25.212v-70.927q0-14.961 10.251-25.212t25.212-10.251h64.277l106.389-106.389h42.113v354.632h-42.113z" horiz-adv-x="568" />
<glyph unicode="&#xe042;" d="M390.095 338.147v-37.68q37.68-6.649 62.892-36.017t25.212-68.433-25.212-68.71-62.892-35.74v-37.125q58.736 0 100.294 41.558t41.558 100.294-41.558 100.294-100.294 41.559zM425.558 196.295q0 14.961-10.251 25.212t-25.212 10.251-25.212-10.251-10.251-25.212 10.251-25.212 25.212-10.251 25.212 10.251 10.251 25.212zM170.667 267.221h-64.277q-14.961 0-25.212-10.251t-10.251-25.212v-70.927q0-14.961 10.251-25.212t25.212-10.251h64.277l106.39-106.389h42.113v354.632h-42.113z" horiz-adv-x="568" />
<glyph unicode="&#xe043;" d="M283.705 444.537q-67.601 0-124.675-33.247t-90.32-90.32-33.247-124.675q0-49.87 18.563-94.753t52.364-78.684v-74.805q0-14.961 10.251-25.212t25.212-10.251h35.463q14.961 0 25.212 10.251t10.251 25.212v177.316q0 14.961-10.251 25.212t-25.212 10.251h-35.463q-14.961 0-25.212-10.251t-10.251-25.212v-6.095q-16.070 36.572-16.070 77.022 0 80.346 56.52 136.866t136.866 56.519 136.866-56.519 56.519-136.866q0-40.45-16.070-77.022v6.095q0 14.961-10.251 25.212t-25.212 10.251h-35.463q-14.961 0-25.212-10.251t-10.251-25.212v-177.316q0-14.961 10.251-25.212t25.212-10.251h35.463q14.961 0 25.212 10.251t10.251 25.212v74.805q33.801 33.801 52.363 78.684t18.563 94.753q0 67.601-33.247 124.675t-90.32 90.32-124.675 33.247z" horiz-adv-x="568" />
<glyph unicode="&#xe044;" d="M176.762 373.611q-43.221 0-74.251-35.463t-31.584-96.416q0-19.394 6.095-36.849t14.407-29.368 23.55-24.935 25.489-19.671 28.814-18.009 26.321-16.346q33.801-22.164 58.736-50.147t29.368-43.498q3.879 14.407 29.922 43.221t58.182 51.532q8.866 6.095 26.043 16.901t28.814 18.009 26.043 19.671 22.995 24.381 14.684 29.368 6.095 36.849q0 36.017-12.467 64t-31.584 43.221-43.221 19.948-47.377-1.939-44.329-26.043-33.801-49.316q-17.178 39.896-45.992 60.399t-60.953 20.502z" horiz-adv-x="568" />
<glyph unicode="&#xe045;" d="M176.762 373.611q-43.221 0-74.251-35.463t-31.584-96.416q0-19.394 6.095-36.849t14.407-29.368 23.55-24.935 25.489-19.671 28.814-18.009 26.321-16.346q33.801-22.164 58.736-50.147t29.368-43.498q3.879 14.407 29.922 43.221t58.182 51.532q8.866 6.095 26.043 16.901t28.814 18.009 26.043 19.671 22.995 24.381 14.684 29.368 6.095 36.849q0 36.017-12.467 64t-31.584 43.221-43.221 19.948-47.377-1.939-44.329-26.043-33.801-49.316q-17.178 39.896-45.992 60.399t-60.953 20.502zM181.749 307.117q28.814 0 57.35-21.887t44.606-59.013q8.312 19.394 21.611 35.74t28.26 26.043 30.753 14.961 30.199 3.048 26.043-10.251 18.563-25.212 6.926-40.45q0-18.286-5.541-32.969t-17.454-26.32-21.611-18.84-26.598-17.731-23.55-15.515q-24.935-17.178-44.883-39.065t-22.719-32.969q-3.325 12.19-22.442 33.524t-45.16 37.957q-5.541 3.879-19.671 12.467t-22.165 13.853-19.671 14.961-17.732 18.84-10.805 22.442-4.71 28.26q0 38.788 17.177 58.736t43.221 19.394z" horiz-adv-x="568" />
<glyph unicode="&#xe046;" d="M176.762 373.611q-43.221 0-74.251-35.463t-31.584-96.416q0-19.394 6.095-36.849t14.407-29.368 23.55-24.935 25.489-19.671 28.814-18.009 26.321-16.346q33.801-22.164 58.736-50.147t29.368-43.498q3.879 14.407 29.922 43.221t58.182 51.532q8.866 6.095 26.043 16.901t28.814 18.009 26.043 19.671 22.995 24.381 14.684 29.368 6.095 36.849q0 36.017-12.467 64t-31.584 43.221-43.221 19.948-47.377-1.939-44.329-26.043-33.801-49.316q-17.178 39.896-45.992 60.399t-60.953 20.502zM386.216 306.563q26.043 0 42.943-19.117t16.901-57.351q0-18.286-5.541-32.969t-17.454-26.32-21.611-18.84-26.598-17.731-23.55-15.515q-24.935-17.178-44.883-39.065t-22.719-32.969v179.532q15.515 36.018 44.606 58.182t57.905 22.164z" horiz-adv-x="568" />
<glyph unicode="&#xe047;" d="M283.705 480l-80.9-172.329-188.952-23.827 139.083-130.216-36.017-186.736 166.788 91.983 166.788-91.983-36.017 186.736 139.083 130.216-188.952 23.827z" horiz-adv-x="568" />
<glyph unicode="&#xe048;" d="M283.705 480l-80.9-172.329-188.952-23.827 139.083-130.216-36.017-186.736 166.788 91.983 166.788-91.983-36.017 186.736 139.083 130.216-188.952 23.827zM283.705 373.057l49.316-104.728 115.255-14.407-84.779-79.792 21.611-114.147-101.403 56.519-101.403-56.519 21.611 114.147-84.779 79.792 115.256 14.407z" horiz-adv-x="568" />
<glyph unicode="&#xe049;" d="M283.705 480l-80.9-172.329-188.952-23.827 139.083-130.216-36.017-186.736 166.788 91.428v421.68z" horiz-adv-x="568" />
<glyph unicode="&#xe04a;" d="M283.705 480l-80.9-172.329-188.952-23.827 139.083-130.216-36.017-186.736 166.788 91.428v57.627l-101.957-55.966 22.165 114.147-84.779 79.238 115.256 14.961 49.316 104.728v106.943z" horiz-adv-x="568" />
<glyph unicode="&#xe04b;" d="M461.022 373.611q-14.961 0-25.212-10.251t-10.251-25.212v-283.706q0-14.961 10.251-25.212t25.212-10.251 25.212 10.251 10.251 25.212v283.705q0 14.961-10.251 25.212t-25.212 10.251zM354.632 267.221q-14.961 0-25.212-10.251t-10.251-25.212v-177.316q0-14.961 10.251-25.212t25.212-10.251 25.212 10.251 10.251 25.212v177.316q0 14.961-10.251 25.212t-25.212 10.251zM141.853 231.757q-14.961 0-25.212-10.251t-10.251-25.212v-141.853q0-14.961 10.251-25.212t25.212-10.251 25.212 10.251 10.251 25.212v141.853q0 14.961-10.251 25.212t-25.212 10.251zM248.243 160.831q-14.961 0-25.212-10.251t-10.251-25.212v-70.927q0-14.961 10.251-25.212t25.212-10.251 25.212 10.251 10.251 25.212v70.927q0 14.961-10.251 25.212t-25.212 10.251z" horiz-adv-x="568" />
<glyph unicode="&#xe04c;" d="M141.853 373.611q-14.961 0-25.212-10.251t-10.251-24.935 10.251-25.212 25.212-10.528h283.705q14.961 0 25.212 10.528t10.251 25.212-10.251 24.935-25.212 10.251h-283.705zM141.853 267.221q-14.961 0-25.212-10.251t-10.251-24.935 10.251-25.212 25.212-10.528h177.316q14.961 0 25.212 10.528t10.251 25.212-10.251 24.935-25.212 10.251h-177.316zM141.853 160.831q-14.961 0-25.212-10.251t-10.251-24.935 10.251-25.212 25.212-10.528h70.927q14.961 0 25.212 10.528t10.251 25.212-10.251 24.935-25.212 10.251h-70.927zM141.853 54.442q-14.961 0-25.212-10.251t-10.251-24.935 10.251-25.212 25.212-10.528h141.853q14.961 0 25.212 10.528t10.251 25.212-10.251 24.935-25.212 10.251h-141.853z" horiz-adv-x="568" />
<glyph unicode="&#xe04d;" d="M384.554 427.913l-55.411-196.156 193.94 58.182q-7.758 18.286-19.117 37.402t-28.537 40.173-40.728 37.403-50.147 22.995zM283.705 410.182q-88.658 0-151.273-62.615t-62.614-151.273q0-34.909 11.082-68.156l171.775 73.143 49.87 207.792q-9.974 1.108-18.84 1.108zM497.039 207.377l-198.927-40.45-196.156-83.671q28.814-46.546 77.022-73.697t104.728-27.151q88.658 0 151.272 62.615t62.615 151.273q0 4.987-0.554 11.082z" horiz-adv-x="568" />
<glyph unicode="&#xe04e;" d="M384.554 427.913l-24.935-88.104q26.598-8.866 46.269-29.368t27.428-47.654l89.766 27.151q-7.758 18.286-19.117 37.402t-28.537 40.173-40.728 37.403-50.147 22.995zM283.705 410.182q-88.658 0-151.273-62.615t-62.614-151.273q0-34.909 11.082-68.156l89.766 38.234q-3.879 14.961-3.879 29.922 0 47.1 32.692 81.178t79.792 35.74l23.272 95.861q-9.974 1.108-18.84 1.108zM497.039 207.377l-96.969-19.394q-2.771-45.992-36.572-77.298t-79.792-31.308q-26.598 0-50.424 11.36t-39.896 31.308l-91.428-38.788q28.814-46.546 77.022-73.697t104.728-27.151q88.658 0 151.272 62.615t62.615 151.273q0 4.987-0.554 11.082z" horiz-adv-x="568" />
<glyph unicode="&#xe04f;" d="M212.779 338.147q-14.961 0-25.212-10.251t-10.251-25.212q0-4.433 1.108-9.42l-89.212-66.493q-8.311 4.987-18.285 4.987-14.961 0-25.212-10.251t-10.251-25.212 10.251-25.212 25.212-10.251 25.212 10.251 10.251 25.212q0 4.433-1.108 8.866l89.212 67.048q8.311-4.987 18.285-4.987 2.77 0 5.541 0.554l106.389-159.031q-5.541-8.866-5.541-18.84 0-14.961 10.251-25.212t25.212-10.251 25.212 10.251 10.251 25.212q0 8.866-3.879 16.623l100.849 126.338q4.987-1.108 9.42-1.108 14.961 0 25.212 10.251t10.251 25.212-10.251 25.212-25.212 10.251-25.212-10.251-10.251-25.212q0-8.866 3.879-16.624l-101.403-126.338q-4.433 1.108-8.866 1.108-3.879 0-7.204-0.554l-105.281 157.922q6.095 8.866 6.095 19.948 0 14.961-10.251 25.212t-25.212 10.251z" horiz-adv-x="568" />
<glyph unicode="&#xe050;" d="M352.969 75.498l-170.667 212.225-147.394-136.866 0.554-131.879q0-14.961 10.251-25.212t25.212-10.251h425.558q14.961 0 25.212 10.251t10.251 25.212v248.243zM183.411 405.195l-156.814-156.814 24.935-24.935 129.662 129.108 172.329-214.441h0.554l176.762 188.952-26.043 24.381-149.057-160.138z" horiz-adv-x="568" />
<glyph unicode="&#xe051;" d="M248.243 302.684q14.961 0 25.212 10.251t10.251 25.212-10.251 25.212-25.212 10.251-25.212-10.251-10.251-25.212 10.251-25.212 25.212-10.251zM141.853 196.295q14.961 0 25.212 10.251t10.251 25.212-10.251 25.212-25.212 10.251-25.212-10.251-10.251-25.212 10.251-25.212 25.212-10.251zM514.216 18.978h-443.29v372.363q0 7.204-5.264 12.467t-12.468 5.264-12.468-5.264-5.264-12.467v-390.095q0-7.204 5.264-12.467t12.468-5.264h461.022q7.203 0 12.467 5.264t5.264 12.467-5.264 12.467-12.467 5.264zM354.632 125.368q14.961 0 25.212 10.251t10.251 25.212-10.251 25.212-25.212 10.251-25.212-10.251-10.251-25.212 10.251-25.212 25.212-10.251zM461.022 267.221q14.961 0 25.212 10.251t10.251 25.212-10.251 25.212-25.212 10.251-25.212-10.251-10.251-25.212 10.251-25.212 25.212-10.251z" horiz-adv-x="568" />
<glyph unicode="&#xe052;" d="M88.658 373.611q-7.204 0-12.468-5.264t-5.264-12.467 5.264-12.467 12.468-5.264h390.095q7.204 0 12.467 5.264t5.264 12.467-5.264 12.467-12.467 5.264h-390.095zM88.658 302.684q-7.204 0-12.468-5.264t-5.264-12.467 5.264-12.467 12.468-5.264h283.705q7.204 0 12.467 5.264t5.264 12.467-5.264 12.467-12.467 5.264h-283.705zM88.658 231.757q-7.204 0-12.468-5.264t-5.264-12.467 5.264-12.467 12.468-5.264h390.095q7.204 0 12.467 5.264t5.264 12.467-5.264 12.468-12.467 5.264h-390.095zM88.658 160.831q-7.204 0-12.468-5.264t-5.264-12.467 5.264-12.467 12.468-5.264h283.705q7.204 0 12.467 5.264t5.264 12.467-5.264 12.467-12.467 5.264h-283.705zM88.658 89.905q-7.204 0-12.468-5.264t-5.264-12.467 5.264-12.467 12.468-5.264h390.095q7.204 0 12.467 5.264t5.264 12.467-5.264 12.467-12.467 5.264h-390.095zM88.658 18.978q-7.204 0-12.468-5.264t-5.264-12.467 5.264-12.467 12.468-5.264h283.705q7.204 0 12.467 5.264t5.264 12.467-5.264 12.467-12.467 5.264h-283.705z" horiz-adv-x="568" />
<glyph unicode="&#xe053;" d="M478.753 338.147h-390.095q-7.204 0-12.468 5.264t-5.264 12.468 5.264 12.467 12.468 5.264h390.095q7.204 0 12.467-5.264t5.264-12.467-5.264-12.468-12.467-5.264zM407.827 267.221h-248.243q-7.203 0-12.468 5.264t-5.264 12.467 5.264 12.468 12.468 5.264h248.243q7.204 0 12.467-5.264t5.264-12.468-5.264-12.467-12.467-5.264zM478.753 196.295h-390.095q-7.204 0-12.468 5.264t-5.264 12.467 5.264 12.468 12.468 5.264h390.095q7.204 0 12.467-5.264t5.264-12.468-5.264-12.467-12.467-5.264zM407.827 125.368h-248.243q-7.203 0-12.468 5.264t-5.264 12.467 5.264 12.467 12.468 5.264h248.243q7.204 0 12.467-5.264t5.264-12.467-5.264-12.467-12.467-5.264zM478.753 54.442h-390.095q-7.204 0-12.468 5.264t-5.264 12.467 5.264 12.467 12.468 5.264h390.095q7.204 0 12.467-5.264t5.264-12.467-5.264-12.467-12.467-5.264zM407.827-16.485h-248.243q-7.203 0-12.468 5.264t-5.264 12.467 5.264 12.467 12.468 5.264h248.243q7.204 0 12.467-5.264t5.264-12.467-5.264-12.467-12.467-5.264z" horiz-adv-x="568" />
<glyph unicode="&#xe054;" d="M88.658 373.611q-7.204 0-12.468-5.264t-5.264-12.467 5.264-12.467 12.468-5.264h390.095q7.204 0 12.467 5.264t5.264 12.467-5.264 12.467-12.467 5.264h-390.095zM88.658 302.684q-7.204 0-12.468-5.264t-5.264-12.467 5.264-12.467 12.468-5.264h390.095q7.204 0 12.467 5.264t5.264 12.467-5.264 12.467-12.467 5.264h-390.095zM88.658 231.757q-7.204 0-12.468-5.264t-5.264-12.467 5.264-12.467 12.468-5.264h390.095q7.204 0 12.467 5.264t5.264 12.467-5.264 12.468-12.467 5.264h-390.095zM88.658 160.831q-7.204 0-12.468-5.264t-5.264-12.467 5.264-12.467 12.468-5.264h390.095q7.204 0 12.467 5.264t5.264 12.467-5.264 12.467-12.467 5.264h-390.095zM88.658 89.905q-7.204 0-12.468-5.264t-5.264-12.467 5.264-12.467 12.468-5.264h390.095q7.204 0 12.467 5.264t5.264 12.467-5.264 12.467-12.467 5.264h-390.095zM88.658 18.978q-7.204 0-12.468-5.264t-5.264-12.467 5.264-12.467 12.468-5.264h390.095q7.204 0 12.467 5.264t5.264 12.467-5.264 12.467-12.467 5.264h-390.095z" horiz-adv-x="568" />
<glyph unicode="&#xe055;" d="M88.658 373.611q-7.204 0-12.468-5.264t-5.264-12.467 5.264-12.467 12.468-5.264h390.095q7.204 0 12.467 5.264t5.264 12.467-5.264 12.467-12.467 5.264h-390.095zM88.658 302.684q-7.204 0-12.468-5.264t-5.264-12.467 5.264-12.467 12.468-5.264h390.095q7.204 0 12.467 5.264t5.264 12.467-5.264 12.467-12.467 5.264h-390.095zM88.658 231.757q-7.204 0-12.468-5.264t-5.264-12.467 5.264-12.467 12.468-5.264h390.095q7.204 0 12.467 5.264t5.264 12.467-5.264 12.468-12.467 5.264h-390.095zM88.658 160.831q-7.204 0-12.468-5.264t-5.264-12.467 5.264-12.467 12.468-5.264h390.095q7.204 0 12.467 5.264t5.264 12.467-5.264 12.467-12.467 5.264h-390.095zM88.658 89.905q-7.204 0-12.468-5.264t-5.264-12.467 5.264-12.467 12.468-5.264h390.095q7.204 0 12.467 5.264t5.264 12.467-5.264 12.467-12.467 5.264h-390.095zM88.658 18.978q-7.204 0-12.468-5.264t-5.264-12.467 5.264-12.467 12.468-5.264h390.095q7.204 0 12.467 5.264t5.264 12.467-5.264 12.467-12.467 5.264h-390.095z" horiz-adv-x="568" />
<glyph unicode="&#xe056;" d="M477.645 89.905q7.204 0 12.467-5.264t5.264-12.467-5.264-12.467-12.467-5.264h-32.692l36.017-36.017q11.637-2.216 13.853-13.853l46.545-45.991-37.125-37.125-461.022 461.022 37.126 37.125 45.437-45.991h351.861q7.204 0 12.467-5.264t5.264-12.468-5.264-12.467-12.467-5.264h-316.399l35.463-35.463h280.935q7.204 0 12.467-5.264t5.264-12.468-5.264-12.468-12.467-5.264h-245.472l35.463-35.463h210.009q7.204 0 12.467-5.264t5.264-12.467-5.264-12.467-12.467-5.264h-174.546l35.463-35.463h139.082q7.204 0 12.467-5.264t5.264-12.467-5.264-12.467-12.467-5.264h-103.619l35.463-35.463h68.156zM80.347 301.022l33.801-33.801h-26.597q-7.204 0-12.468 5.264t-5.264 12.467q0 11.637 10.528 16.070zM87.55 231.757h62.061l35.463-35.463h-97.524q-7.204 0-12.468 5.264t-5.264 12.467 5.264 12.468 12.468 5.264zM87.55 160.831h132.987l35.463-35.463h-168.45q-7.204 0-12.468 5.264t-5.264 12.467 5.264 12.467 12.468 5.264zM87.55 89.905h203.913l35.463-35.463h-239.376q-7.204 0-12.468 5.264t-5.264 12.467 5.264 12.467 12.468 5.264zM87.55 18.978h274.84l35.463-35.463h-310.303q-7.204 0-12.468 5.264t-5.264 12.467 5.264 12.467 12.468 5.264z" horiz-adv-x="568" />
<glyph unicode="&#xe057;" d="M333.576 206.822q50.424-11.637 70.927-28.26 28.814-23.827 28.814-62.060 0-39.896-32.139-65.94-39.342-31.584-114.702-31.584h-180.087v9.42q24.381 0 33.247 4.987 8.866 4.433 12.468 11.637t3.601 36.017v230.511q0 28.814-3.601 36.017t-12.468 11.637-33.247 4.433v9.974h170.113q60.952 0 86.164-10.805t39.896-32.415 14.684-45.992q0-25.489-18.286-45.437-18.84-19.948-65.385-32.139zM238.268 193.524v-113.593l-0.554-13.298q0-13.853 7.203-21.056t21.61-7.204q20.502 0 38.234 9.42 18.286 9.42 27.151 26.598 9.42 17.731 9.42 39.342 0 24.935-11.082 44.883-11.637 19.394-32.139 27.706-19.948 7.757-59.844 7.204zM238.268 214.026q37.126 0 54.857 8.312t27.151 23.55 9.42 38.788-9.42 38.511-26.598 22.719q-17.178 8.311-55.411 7.757v-139.636z" horiz-adv-x="568" />
<glyph unicode="&#xe058;" d="M141.853 373.611h141.853q42.113 0 62.615-3.325 20.502-3.879 37.125-14.961 16.070-11.082 27.151-29.645t11.082-41.281q0-24.935-13.853-45.992-13.298-20.502-36.017-31.030 32.139-9.42 49.593-32.139t17.454-53.195q0-24.381-11.082-47.099-11.082-23.272-30.753-36.849t-47.93-16.901q-17.178-1.663-86.442-2.216h-120.796v354.632zM213.333 314.321v-82.009h47.1q42.113 0 52.087 1.662 18.286 2.216 28.814 12.744t10.528 27.705q0 16.070-9.143 26.321t-26.875 12.467q-10.528 1.108-61.507 1.108h-41.005zM213.333 173.576v-94.753h66.494q38.788 0 49.316 2.216 15.515 2.771 25.766 14.13t10.251 30.199q0 15.515-7.757 26.875t-22.719 16.346q-14.407 4.987-63.169 4.987h-58.182z" horiz-adv-x="568" />
<glyph unicode="&#xe059;" d="M234.944 364.19l2.77 9.42h172.883l-3.325-9.42q-23.272 0-36.017-10.528-12.19-10.528-21.611-43.775l-64.831-227.186q-7.204-23.827-7.204-32.139 0-9.42 7.204-14.407 9.42-7.204 35.463-7.757l-2.216-9.42h-176.208l2.77 9.42q26.597 0 38.788 10.251t22.165 44.052l65.386 227.186q6.095 21.056 6.095 31.584 0 9.42-7.204 14.961t-34.909 7.758z" horiz-adv-x="568" />
<glyph unicode="&#xe05a;" d="M281.489 373.611l-74.251-354.632h73.143l74.251 354.632h-73.143z" horiz-adv-x="568" />
<glyph unicode="&#xe05b;" d="M106.389-51.948v35.463h354.632v-35.463h-354.632zM106.944 373.611h178.979v-9.42h-8.866q-20.502 0-27.983-4.156t-10.528-11.636-3.048-37.403v-169.558q0-46.546 6.927-61.507t22.995-24.935 41.005-9.974q27.705 0 47.654 12.745 19.948 12.19 29.645 34.632t9.697 77.298v141.298q0 23.273-4.433 33.247-4.987 9.974-12.745 13.853-11.082 6.095-32.139 6.095v9.42h119.689v-9.42h-7.204q-14.407 0-24.104-5.818t-14.13-18.008q-3.325-8.312-3.325-29.368v-131.324q0-61.507-8.312-88.104-7.757-27.151-39.065-49.87t-85.057-22.719q-44.883 0-69.264 11.637-33.801 16.623-47.654 42.113t-13.853 68.71v169.559q0 29.922-3.325 37.402t-11.359 11.637-30.199 4.156v9.42z" horiz-adv-x="568" />
<glyph unicode="&#xe05c;" d="M141.853-51.948v35.463h283.705v-35.463h-283.705zM141.298 373.611h70.373v-188.399q0-44.883 2.216-58.182 4.433-21.611 21.611-34.355t46.546-12.745q29.922 0 45.16 12.19t18.286 29.922 3.048 59.29v192.277h70.373v-182.857q0-62.615-6.095-88.658-5.541-26.043-21.057-43.775-14.961-17.731-41.005-28.26-25.489-10.528-66.493-10.528-49.87 0-75.913 11.637-25.489 11.637-40.45 29.922t-19.948 38.788q-6.649 29.922-6.649 88.104v185.627z" horiz-adv-x="568" />
<glyph unicode="&#xe05d;" d="M35.463 166.373v17.178h496.485v-17.178h-496.485zM520.312 155.29q-6.649-31.584-25.489-48.485t-41.558-16.901q-27.151 0-47.654 22.995t-19.948 61.784q0 37.68 22.164 61.23t53.749 23.55q23.827 0 39.065-12.467t15.238-25.766q0-6.649-4.433-10.805t-12.19-4.156q-9.974 0-15.515 6.649-2.771 3.879-3.879 14.13t-7.204 15.792q-6.095 4.987-16.623 4.987-17.731 0-28.26-12.744-13.853-17.177-13.853-45.437 0-28.814 13.853-50.702t37.68-21.887q17.178 0 31.031 11.637 9.42 8.312 18.84 29.368zM249.351 227.325q23.272 32.138 49.87 32.138 24.935 0 43.221-21.056t18.286-57.627q0-42.666-28.26-68.71-24.381-22.164-54.303-22.164-13.853 0-28.26 4.987t-29.368 15.515v165.679q0 27.152-1.108 33.247-1.662 6.649-4.433 8.866t-6.649 2.216q-4.987 0-12.744-2.771l-2.216 6.095 48.208 19.394h7.757v-115.81zM249.351 216.243v-95.862q8.866-8.866 18.286-13.298t19.394-4.433q16.070 0 29.922 17.454t13.853 50.702q0 31.031-13.853 47.377t-31.584 16.346q-8.866 0-18.286-4.433-7.204-3.325-17.732-13.853zM137.42 117.611q-24.381-18.84-31.031-21.611-9.42-4.433-19.948-4.433-16.624 0-27.428 11.36t-10.805 29.645q0 11.637 4.987 20.502 7.203 11.637 24.935 22.164t59.29 25.489v6.649q0 23.827-7.757 32.692t-22.165 8.866q-11.082 0-17.177-6.095-6.65-6.095-6.65-13.298v-10.528q0-7.757-3.879-12.19t-10.528-4.433-10.805 4.433-4.156 12.745q0 14.961 15.515 27.428t43.221 12.467q21.056 0 34.909-7.203 9.974-5.541 14.961-16.624 3.325-7.757 3.325-31.030v-54.303q0-22.719 0.554-27.706 1.108-5.541 3.048-7.204t4.71-1.663 4.987 1.108q3.325 2.216 13.853 12.745v-9.974q-19.394-26.043-37.126-26.043-8.866 0-13.853 6.095t-4.987 19.948zM137.42 129.247v60.952q-26.597-10.528-34.355-14.961-13.853-7.757-19.671-16.070t-5.818-18.286q0-12.745 7.481-21.056t17.454-8.312q13.299 0 34.909 17.731z" horiz-adv-x="568" />
<glyph unicode="&#xe05e;" d="M35.463 161.94v22.719h496.485v-22.719h-496.485zM502.58 151.966l26.598-3.325q-4.433-27.705-22.442-43.221t-44.052-15.515q-32.692 0-52.64 21.334t-19.948 61.784q0 25.489 8.589 44.883t25.766 29.368q17.731 9.42 38.234 9.42 26.043 0 42.666-13.021t21.057-37.403l-26.043-3.879q-3.879 16.070-13.298 24.104t-23.272 8.035q-20.502 0-33.247-14.684t-12.745-46.269q0-32.139 12.467-46.822t31.861-14.684q16.070 0 26.875 9.697t13.576 30.199zM252.121 93.229h-25.489v220.537h27.151v-78.684q17.178 21.611 43.775 21.611 14.961 0 27.983-5.818t21.611-16.624 13.298-26.043 4.71-32.416q0-41.005-20.225-63.446t-48.485-22.442-44.329 23.827v-20.502zM251.567 174.684q0-28.814 7.757-41.558 12.745-21.056 34.909-21.056 17.731 0 30.476 15.515t12.745 45.991q0 31.031-12.19 45.991t-29.922 14.961-30.753-15.515-13.022-44.329zM160.138 113.178q-14.961-12.745-29.368-18.286-13.299-4.987-29.368-4.987-26.597 0-40.727 12.745t-14.13 32.692q0 12.19 5.264 21.887t13.853 15.515 19.671 8.589q7.757 2.216 24.381 4.433 32.692 3.879 48.208 8.866v7.204q0 16.623-7.757 23.273-10.528 9.42-31.031 9.42-18.84 0-27.983-6.649t-13.576-23.827l-26.597 3.325q3.879 17.178 12.191 27.706t23.827 16.070 36.017 5.541 33.247-4.71 18.84-11.913 8.866-18.84q1.108-6.649 1.108-24.935v-36.017q0-37.68 1.662-47.654t6.649-19.394h-28.26q-3.879 8.866-4.987 19.948zM157.922 173.576q-14.961-6.095-44.329-9.974-16.624-2.771-23.827-5.541-6.65-3.325-10.528-8.866t-3.879-12.745q0-11.082 8.311-18.286t23.827-7.204 27.706 6.926 18.286 18.563q4.433 9.42 4.433 27.151v9.974z" horiz-adv-x="568" />
<glyph unicode="&#xe05f;" d="M320.831 117.611h-123.013l-14.407-33.801q-7.203-16.623-7.203-27.705 0-14.407 11.637-21.611 7.203-3.879 34.355-6.095v-9.42h-115.809v9.42q18.84 2.771 30.753 15.515t29.645 52.64l124.121 277.057h4.987l125.229-284.814q18.286-40.45 29.922-50.978 8.312-8.312 24.381-9.42v-9.42h-167.896v9.42h6.649q20.502 0 28.26 5.541 5.541 4.433 5.541 12.19 0 4.433-1.108 9.42-0.554 2.216-7.757 18.84zM311.966 137.005l-52.087 119.688-53.195-119.688h105.281z" horiz-adv-x="568" />
<glyph unicode="&#xe060;" d="M461.576 18.978h-78.13l-30.476 80.346h-141.853l-29.368-80.346h-75.913l137.974 354.632h75.913zM329.697 159.169l-48.762 131.879-47.654-131.879h96.416z" horiz-adv-x="568" />
<glyph unicode="&#xe061;" d="M442.736 373.611v-95.861h-9.42q-8.312 33.247-18.286 47.654t-28.26 23.272q-9.974 4.433-34.355 4.433h-26.598v-273.178q0-27.151 2.771-34.355 3.325-6.649 12.19-11.637 8.312-4.987 23.827-4.987h11.637v-9.974h-185.627v9.974h11.637q15.515 0 24.935 4.987 6.649 3.879 10.528 12.745 3.325 6.649 3.325 33.247v273.178h-26.043q-35.463 0-52.087-14.961-22.719-21.056-28.814-60.399h-9.42v95.862h318.060z" horiz-adv-x="568" />
<glyph unicode="&#xe062;" d="M248.243 18.978v294.788h-105.281v59.844h281.489v-59.844h-104.728v-294.788h-71.481z" horiz-adv-x="568" />
<glyph unicode="&#xe063;" d="M496.485 160.831h-75.36q4.433 17.178 4.433 35.463t-4.433 35.463h75.36q14.961 0 25.212-10.251t10.251-25.212-10.251-25.212-25.212-10.251zM406.164 268.329q-18.84 31.584-50.424 50.424l53.195 53.195q10.528 10.528 25.212 10.528t25.212-10.528 10.528-25.212-10.528-25.212zM248.243 333.714v75.359q0 14.961 10.251 25.212t25.212 10.251 25.212-10.251 10.251-25.212v-75.359q-17.178 4.433-35.463 4.433t-35.463-4.433zM161.247 268.329l-53.195 53.195q-10.528 10.528-10.528 25.212t10.528 25.212 25.212 10.528 25.212-10.528l53.195-53.195q-31.584-18.84-50.424-50.424zM141.853 196.295q0-18.286 4.433-35.463h-75.359q-14.961 0-25.212 10.251t-10.251 25.212 10.251 25.212 25.212 10.251h75.359q-4.433-17.177-4.433-35.463zM161.247 124.26q18.84-31.584 50.424-50.424l-53.195-53.195q-10.528-10.528-25.212-10.528t-25.212 10.528-10.528 25.212 10.528 25.212zM319.169 58.875v-75.36q0-14.961-10.251-25.212t-25.212-10.251-25.212 10.251-10.251 25.212v75.36q17.177-4.433 35.463-4.433t35.463 4.433zM283.705 89.905q-44.329 0-75.359 31.031t-31.030 75.359 31.030 75.36 75.359 31.030 75.359-31.030 31.031-75.36-31.031-75.36-75.36-31.031zM406.164 124.26l53.195-53.195q10.528-10.528 10.528-25.212t-10.528-25.212-25.212-10.528-25.212 10.528l-53.195 53.195q31.584 18.84 50.424 50.424z" horiz-adv-x="568" />
<glyph unicode="&#xe064;" d="M496.485 160.831h-75.36q4.433 17.178 4.433 35.463t-4.433 35.463h75.36q14.961 0 25.212-10.251t10.251-25.212-10.251-25.212-25.212-10.251zM406.164 268.329q-18.84 31.584-50.424 50.424l53.195 53.195q10.528 10.528 25.212 10.528t25.212-10.528 10.528-25.212-10.528-25.212zM283.705-51.948q-14.961 0-25.212 10.251t-10.251 25.212v75.36q17.177-4.433 35.463-4.433t35.463 4.433v-75.36q0-14.961-10.251-25.212t-25.212-10.251zM248.243 333.714v75.359q0 14.961 10.251 25.212t25.212 10.251 25.212-10.251 10.251-25.212v-75.359q-17.178 4.433-35.463 4.433t-35.463-4.433zM161.247 268.329l-53.195 53.195q-10.528 10.528-10.528 25.212t10.528 25.212 25.212 10.528 25.212-10.528l53.195-53.195q-31.584-18.84-50.424-50.424zM141.853 196.295q0-18.286 4.433-35.463h-75.359q-14.961 0-25.212 10.251t-10.251 25.212 10.251 25.212 25.212 10.251h75.359q-4.433-17.177-4.433-35.463zM283.705 302.684v-212.779q-44.329 0-75.359 31.031t-31.030 75.359 31.030 75.36 75.359 31.030zM161.247 124.26q18.84-31.584 50.424-50.424l-53.195-53.195q-10.528-10.528-25.212-10.528t-25.212 10.528-10.528 25.212 10.528 25.212zM406.164 124.26l53.195-53.195q10.528-10.528 10.528-25.212t-10.528-25.212-25.212-10.528-25.212 10.528l-53.195 53.195q31.584 18.84 50.424 50.424z" horiz-adv-x="568" />
<glyph unicode="&#xe065;" d="M283.705-51.948q-50.424 0-96.416 19.671t-79.238 52.918-52.917 79.238-19.671 96.416 19.671 96.416 52.917 79.238 79.238 52.918 96.416 19.671 96.416-19.671 79.238-52.918 52.917-79.238 19.671-96.416-19.671-96.416-52.918-79.238-79.238-52.918-96.416-19.671zM283.705 389.68q-52.641 0-97.247-25.766t-70.373-70.373-25.766-97.247 25.766-97.247 70.373-70.373 97.247-25.766v386.771z" horiz-adv-x="568" />
<glyph unicode="&#xe066;" d="M496.485 89.905h-35.463v141.853q0 14.961-10.251 25.212t-25.212 10.251-25.212-10.251-10.251-25.212v-141.853h-141.853q-14.961 0-25.212-10.251t-10.251-25.212 10.251-25.212 25.212-10.251h141.853v-35.463q0-14.961 10.251-25.212t25.212-10.251 25.212 10.251 10.251 25.212v35.463h35.463q14.961 0 25.212 10.251t10.251 25.212-10.251 25.212-25.212 10.251zM425.558 302.684q14.961 0 25.212 10.251t10.251 25.212-10.251 25.212-25.212 10.251h-248.243v35.463q0 14.961-10.251 25.212t-25.212 10.251-25.212-10.251-10.251-25.212v-35.463h-35.463q-14.961 0-25.212-10.251t-10.251-25.212 10.251-25.212 25.212-10.251h35.463v-248.243q0-14.961 10.251-25.212t25.212-10.251 25.212 10.251 10.251 25.212v248.243h248.243z" horiz-adv-x="568" />
<glyph unicode="&#xe067;" d="M425.558 18.978h-70.927q-14.961 0-25.212 10.251t-10.251 25.212v248.243q0 14.961 10.251 25.212t25.212 10.251h70.927q14.961 0 25.212-10.251t10.251-25.212v-248.243q0-14.961-10.251-25.212t-25.212-10.251zM265.974-16.485q-7.204 0-12.468 5.264t-5.264 12.467v354.632q0 7.204 5.264 12.468t12.468 5.264 12.467-5.264 5.264-12.468v-354.632q0-7.204-5.264-12.467t-12.467-5.264zM177.316 18.978h-70.927q-14.961 0-25.212 10.251t-10.251 25.212v248.243q0 14.961 10.251 25.212t25.212 10.251h70.927q14.961 0 25.212-10.251t10.251-25.212v-248.243q0-14.961-10.251-25.212t-25.212-10.251zM177.316 267.221q0 14.961-10.251 25.212t-25.212 10.251-25.212-10.251-10.251-25.212v-177.316q0-14.961 10.251-25.212t25.212-10.251 25.212 10.251 10.251 25.212v177.316z" horiz-adv-x="568" />
<glyph unicode="&#xe068;" d="M354.632 18.978q-14.961 0-25.212 10.251t-10.251 25.212v319.169h0.554l176.762-354.632h-141.853zM212.779 18.978h-141.853l177.316 354.632v-319.169q0-14.961-10.251-25.212t-25.212-10.251zM212.779 197.402l-70.927-142.961h35.463q14.961 0 25.212 10.251t10.251 25.212v107.498z" horiz-adv-x="568" />
<glyph unicode="&#xe069;" d="M106.389-16.485v141.853q0 14.961 10.251 25.212t25.212 10.251h319.169l0.554-0.554zM106.389 267.221v141.853l354.632-177.316h-319.169q-14.961 0-25.212 10.251t-10.251 25.212zM177.316 267.221h107.498l-142.961 70.927v-35.463q0-14.961 10.251-25.212t25.212-10.251z" horiz-adv-x="568" />
<glyph unicode="&#xe06a;" d="M425.558 18.978q-14.961 0-25.212 10.251t-10.251 25.212v319.169l177.316-354.632h-141.853zM319.169 18.978h-283.705l319.169 177.316v-141.853q0-14.961-10.251-25.212t-25.212-10.251zM319.169 125.368l-141.853-70.926h106.389q14.961 0 25.212 10.251t10.251 25.212v35.463zM248.243 302.684h-35.463q-13.853 0-24.658-9.697t-10.805-25.766v-70.927h-35.463v86.442q0 17.731 16.9 36.572t34.078 18.84h55.411v35.463l98.632-52.087-98.632-54.303v35.463z" horiz-adv-x="568" />
<glyph unicode="&#xe06b;" d="M425.558 267.221q0 16.070-10.805 25.766t-24.658 9.697h-35.463v-35.463l-98.632 54.303 98.632 52.087v-35.463h55.411q17.178 0 34.078-18.84t16.901-36.572v-86.442h-35.463v70.927zM283.705 18.978q-14.961 0-25.212 10.251t-10.251 25.212v141.853l319.169-177.316h-283.705zM283.705 89.905q0-14.961 10.251-25.212t25.212-10.251h106.389l-141.853 70.927v-35.463zM177.316 18.978h-141.853l177.316 354.632v-319.169q0-14.961-10.251-25.212t-25.212-10.251z" horiz-adv-x="568" />
<glyph unicode="&#xe06c;" d="M461.022 409.073h-354.632v-42.112l141.853-141.853v-241.593l70.926 97.524v144.070l141.853 141.853v42.113z" horiz-adv-x="568" />
<glyph unicode="&#xe06d;" d="M467.671 132.017l-23.272-23.272-319.169 319.169 23.273 23.272 113.039-113.039h199.481v-42.113l-78.684-78.684zM333.576 168.589l-14.407-14.407v-144.070l-70.927-97.524v241.593l-141.853 141.853v42.113h57.627z" horiz-adv-x="568" />
<glyph unicode="&#xe06e;" d="M531.948 54.442h-248.243q-14.961 0-25.212-10.251t-10.251-25.212 10.251-25.212 25.212-10.251h248.243q14.961 0 25.212 10.251t10.251 25.212-10.251 25.212-25.212 10.251zM283.705 89.905h177.316q14.961 0 25.212 10.251t10.251 25.212-10.251 25.212-25.212 10.251h-177.316q-14.961 0-25.212-10.251t-10.251-25.212 10.251-25.212 25.212-10.251zM106.389 355.879q0 7.203-5.264 12.467t-12.468 5.264-12.468-5.264-5.264-12.467v-230.511h-70.927l88.658-141.853 88.658 141.853h-70.927v230.511zM283.705 196.295h106.389q14.961 0 25.212 10.251t10.251 25.212-10.251 25.212-25.212 10.251h-106.389q-14.961 0-25.212-10.251t-10.251-25.212 10.251-25.212 25.212-10.251zM283.705 302.684h35.463q14.961 0 25.212 10.251t10.251 25.212-10.251 25.212-25.212 10.251h-35.463q-14.961 0-25.212-10.251t-10.251-25.212 10.251-25.212 25.212-10.251z" horiz-adv-x="568" />
<glyph unicode="&#xe06f;" d="M390.095 160.831h-106.389q-14.961 0-25.212-10.251t-10.251-25.212 10.251-25.212 25.212-10.251h106.389q14.961 0 25.212 10.251t10.251 25.212-10.251 25.212-25.212 10.251zM531.948 373.611h-248.243q-14.961 0-25.212-10.251t-10.251-25.212 10.251-25.212 25.212-10.251h248.243q14.961 0 25.212 10.251t10.251 25.212-10.251 25.212-25.212 10.251zM461.022 267.221h-177.316q-14.961 0-25.212-10.251t-10.251-25.212 10.251-25.212 25.212-10.251h177.316q14.961 0 25.212 10.251t10.251 25.212-10.251 25.212-25.212 10.251zM319.169 54.442h-35.463q-14.961 0-25.212-10.251t-10.251-25.212 10.251-25.212 25.212-10.251h35.463q14.961 0 25.212 10.251t10.251 25.212-10.251 25.212-25.212 10.251zM106.389 355.879q0 7.203-5.264 12.467t-12.468 5.264-12.468-5.264-5.264-12.467v-230.511h-70.927l88.658-141.853 88.658 141.853h-70.927v230.511z" horiz-adv-x="568" />
<glyph unicode="&#xe070;" d="M212.779 302.684h-35.463q-14.961 0-25.212 10.251t-10.251 25.212 10.251 25.212 25.212 10.251h35.463q14.961 0 25.212-10.251t10.251-25.212-10.251-25.212-25.212-10.251zM354.632 196.295h-177.316q-14.961 0-25.212 10.251t-10.251 25.212 10.251 25.212 25.212 10.251h177.316q14.961 0 25.212-10.251t10.251-25.212-10.251-25.212-25.212-10.251zM283.705 89.905h-106.389q-14.961 0-25.212 10.251t-10.251 25.212 10.251 25.212 25.212 10.251h106.389q14.961 0 25.212-10.251t10.251-25.212-10.251-25.212-25.212-10.251zM425.558-16.485h-248.243q-14.961 0-25.212 10.251t-10.251 25.212 10.251 25.212 25.212 10.251h248.243q14.961 0 25.212-10.251t10.251-25.212-10.251-25.212-25.212-10.251z" horiz-adv-x="568" />
<glyph unicode="&#xe071;" d="M390.095 125.368q14.961 0 25.212 10.251t10.251 25.212-10.251 25.212-25.212 10.251h-70.927q-14.961 0-25.212-10.251t-10.251-25.212 10.251-25.212 25.212-10.251h70.927zM496.485 302.684h-177.316q-14.961 0-25.212-10.251t-10.251-25.212 10.251-25.212 25.212-10.251h177.316q14.961 0 25.212 10.251t10.251 25.212-10.251 25.212-25.212 10.251zM514.216 89.905h-319.169q-7.203 0-12.468-5.264t-5.264-12.467 5.264-12.467 12.468-5.264h319.169q7.203 0 12.467 5.264t5.264 12.467-5.264 12.467-12.467 5.264zM195.048 338.147h319.169q7.203 0 12.467 5.264t5.264 12.468-5.264 12.467-12.467 5.264h-319.169q-7.203 0-12.468-5.264t-5.264-12.467 5.264-12.468 12.468-5.264zM223.862 212.918l-117.472 100.849v-82.008h-53.195q-7.203 0-12.468-5.264t-5.264-12.468 5.264-12.467 12.468-5.264h53.195v-82.008zM514.216 18.978h-319.169q-7.203 0-12.468-5.264t-5.264-12.467 5.264-12.467 12.468-5.264h319.169q7.203 0 12.467 5.264t5.264 12.467-5.264 12.467-12.467 5.264z" horiz-adv-x="568" />
<glyph unicode="&#xe072;" d="M514.216 89.905h-319.169q-7.203 0-12.468-5.264t-5.264-12.467 5.264-12.467 12.468-5.264h319.169q7.203 0 12.467 5.264t5.264 12.467-5.264 12.467-12.467 5.264zM390.095 125.368q14.961 0 25.212 10.251t10.251 25.212-10.251 25.212-25.212 10.251h-70.927q-14.961 0-25.212-10.251t-10.251-25.212 10.251-25.212 25.212-10.251h70.927zM496.485 302.684h-177.316q-14.961 0-25.212-10.251t-10.251-25.212 10.251-25.212 25.212-10.251h177.316q14.961 0 25.212 10.251t10.251 25.212-10.251 25.212-25.212 10.251zM195.048 338.147h319.169q7.203 0 12.467 5.264t5.264 12.468-5.264 12.467-12.467 5.264h-319.169q-7.203 0-12.468-5.264t-5.264-12.467 5.264-12.468 12.468-5.264zM514.216 18.978h-319.169q-7.203 0-12.468-5.264t-5.264-12.467 5.264-12.467 12.468-5.264h319.169q7.203 0 12.467 5.264t5.264 12.467-5.264 12.467-12.467 5.264zM195.048 196.295q7.203 0 12.468 5.264t5.264 12.467-5.264 12.468-12.468 5.264h-53.195v82.008l-117.472-100.849 117.472-98.632v82.008h53.195z" horiz-adv-x="568" />
<glyph unicode="&#xe073;" d="M425.558 54.442q-38.788 0-71.481 19.394t-51.533 51.533h123.013q29.368 0 50.147 20.779t20.779 50.147-20.779 50.147-50.147 20.779h-123.013q18.84 32.139 51.533 51.533t71.481 19.394q58.736 0 100.294-41.559t41.558-100.295-41.558-100.294-100.294-41.558zM141.853 196.295q0 14.961 10.251 25.212t25.212 10.251h212.779q14.961 0 25.212-10.251t10.251-25.212-10.251-25.212-25.212-10.251h-212.779q-14.961 0-25.212 10.251t-10.251 25.212zM70.927 196.295q0-29.368 20.779-50.147t50.147-20.779h123.013q-18.84-32.139-51.532-51.533t-71.481-19.394q-58.736 0-100.294 41.558t-41.559 100.294 41.559 100.294 100.294 41.559q38.788 0 71.481-19.394t51.532-51.532h-123.013q-29.368 0-50.147-20.779t-20.779-50.147z" horiz-adv-x="568" />
<glyph unicode="&#xe074;" d="M283.705 18.978h35.463v-87.55h-35.463v87.55zM283.705 461.16h35.463v-87.55h-35.463v87.55zM89.766 267.221h177.316v59.844q-26.043 11.083-54.303 11.083-38.788 0-71.481-19.394t-51.532-51.533zM335.792 125.368v-59.844q26.043-11.082 54.303-11.082 38.788 0 71.481 19.394t51.532 51.533h-177.316zM531.948 231.757h-70.927q-14.961 0-25.212-10.251t-10.251-25.212 10.251-25.212 25.212-10.251h70.927q14.961 0 25.212 10.251t10.251 25.212-10.251 25.212-25.212 10.251zM433.87-7.065l36.572-36.571 19.948 19.948-36.572 36.572zM89.766 125.368q18.84-32.139 51.532-51.532t71.481-19.394q28.26 0 54.303 11.082v59.844h-177.316zM488.173 418.493l-19.948 19.948-36.572-36.572 19.948-19.948zM513.108 267.221q-18.84 32.139-51.533 51.533t-71.481 19.394q-28.26 0-54.303-11.083v-59.844h177.316zM112.485-23.688l19.948-19.948 36.572 36.572-19.948 19.948zM171.221 401.87l-36.572 36.572-19.948-19.948 36.571-36.571zM177.316 196.295q0 14.961-10.251 25.212t-25.212 10.251h-70.927q-14.961 0-25.212-10.251t-10.251-25.212 10.251-25.212 25.212-10.251h70.927q14.961 0 25.212 10.251t10.251 25.212z" horiz-adv-x="568" />
<glyph unicode="&#xe075;" d="M70.927-16.485v425.558h177.316v-70.927h-106.389v-283.705h283.705v106.389h70.927v-177.316h-425.558zM309.195 170.805l-49.87 49.87 124.121 124.121-64.277 64.277h177.316v-177.316l-63.169 63.169z" horiz-adv-x="568" />
<glyph unicode="&#xe076;" d="M397.853 259.463l-98.078-98.632h-51.532v49.316l99.74 99.186-64.277 64.277h177.316v-177.316zM141.853 160.831v-106.389h248.243v106.389h35.463v-141.853h-319.169v319.169h141.853v-35.463h-106.389v-141.853z" horiz-adv-x="568" />
<glyph unicode="&#xe077;" d="M70.927 302.684v70.927h70.927v-70.927h-70.927zM177.316 302.684v70.927h319.169v-70.927h-319.169zM70.927 196.295v70.926h70.927v-70.926h-70.927zM177.316 196.295v70.926h319.169v-70.926h-319.169zM70.927 89.905v70.927h70.927v-70.927h-70.927zM177.316 89.905v70.927h319.169v-70.927h-319.169zM70.927-16.485v70.927h70.927v-70.927h-70.927zM177.316-16.485v70.927h319.169v-70.927h-319.169z" horiz-adv-x="568" />
<glyph unicode="&#xe078;" d="M478.753 54.442h-248.243q-7.203 0-12.468-5.264t-5.264-12.467 5.264-12.467 12.468-5.264h248.243q7.204 0 12.467 5.264t5.264 12.467-5.264 12.467-12.467 5.264zM159.584 338.147h-17.732v17.731q0 7.204-5.264 12.468t-12.468 5.264-12.468-5.264-5.264-12.468v-17.731h-17.731q-7.204 0-12.468-5.264t-5.264-12.468 5.264-12.467 12.468-5.264h17.731v-17.731q0-7.204 5.264-12.468t12.468-5.264 12.468 5.264 5.264 12.468v17.731h17.732q7.203 0 12.468 5.264t5.264 12.467-5.264 12.468-12.468 5.264zM478.753 196.295h-248.243q-7.203 0-12.468-5.264t-5.264-12.467 5.264-12.467 12.468-5.264h248.243q7.204 0 12.467 5.264t5.264 12.467-5.264 12.467-12.467 5.264zM230.511 302.684h248.243q7.204 0 12.467 5.264t5.264 12.468-5.264 12.468-12.467 5.264h-248.243q-7.203 0-12.468-5.264t-5.264-12.468 5.264-12.468 12.468-5.264zM159.584 196.295h-17.732v17.731q0 7.204-5.264 12.468t-12.468 5.264-12.468-5.264-5.264-12.468v-17.731h-17.731q-7.204 0-12.468-5.264t-5.264-12.467 5.264-12.467 12.468-5.264h17.731v-17.731q0-7.204 5.264-12.467t12.468-5.264 12.468 5.264 5.264 12.467v17.731h17.732q7.203 0 12.468 5.264t5.264 12.467-5.264 12.467-12.468 5.264zM159.584 54.442h-17.732v17.731q0 7.204-5.264 12.467t-12.468 5.264-12.468-5.264-5.264-12.467v-17.731h-17.731q-7.204 0-12.468-5.264t-5.264-12.467 5.264-12.467 12.468-5.264h17.731v-17.731q0-7.204 5.264-12.467t12.468-5.264 12.468 5.264 5.264 12.467v17.731h17.732q7.203 0 12.468 5.264t5.264 12.467-5.264 12.467-12.468 5.264z" horiz-adv-x="568" />
<glyph unicode="&#xe079;" d="M418.909 50.563q-10.528 29.922 39.342 172.883l2.771 8.311-135.204 135.203q4.433-1.663 11.913-4.71t28.814-13.022 40.728-19.948 43.221-24.658 41.005-28.537 28.814-30.199 11.636-30.753q-35.463-219.982-77.022-214.442-18.286 2.771-36.017 49.87zM401.178 173.576l-145.732-145.731q-16.070-16.070-30.199-22.995t-26.597-4.156-21.887 9.143-21.611 18.009l-74.805 75.36q-50.424 50.424 0 100.294l146.286 146.286q11.637 11.637 16.9 16.070t12.191 4.433 12.19-4.433 16.901-16.070l116.363-115.81q20.502-21.057 20.502-30.476t-20.502-29.922zM313.627 206.269l-47.654 47.654q-10.528 9.974-25.212 9.974t-24.658-9.974l-25.489-25.489q-9.974-9.974-9.974-24.658t9.974-25.212l47.654-47.654q10.528-10.528 25.212-10.528t25.212 10.528l24.935 24.935q10.528 10.528 10.528 25.212t-10.528 25.212z" horiz-adv-x="568" />
<glyph unicode="&#xe07a;" d="M390.095-51.948h-212.779q-29.368 0-50.147 20.779t-20.779 50.147v283.705q0 29.368 20.779 50.147t50.147 20.779h12.744q16.624 27.151 44.606 49.039t49.039 21.887 49.039-21.887 44.606-49.039h12.745q29.368 0 50.147-20.779t20.779-50.147v-283.705q0-29.368-20.779-50.147t-50.147-20.779zM283.705 409.073q-14.961 0-25.212-10.251t-10.251-25.212h70.927q0 14.961-10.251 25.212t-25.212 10.251zM425.558 302.684q0 14.961-10.251 25.212t-25.212 10.251h-35.463q0-14.961-10.251-25.212t-25.212-10.251h-70.927q-14.961 0-25.212 10.251t-10.251 25.212h-35.463q-14.961 0-25.212-10.251t-10.251-25.212v-248.242q0-14.961 10.251-25.212t25.212-10.251h70.927q2.77 0 7.757 0.277t18.84 2.771 25.766 6.649 25.489 13.576 21.887 22.164q49.316-50.978 68.156 37.68 9.42 42.666 9.42 94.199v106.389z" horiz-adv-x="568" />
<glyph unicode="&#xe07b;" d="M356.849 369.178h-0.554l-254.338-254.338-66.493-166.788 166.788 67.048h0.554l253.784 253.784v0.554zM141.853 54.442l-24.935 24.935v0.554l239.376 238.822q0 0.554 0.554 0l24.381-24.381v-0.554zM431.654 444.537l-49.87-49.87q-0.554-0.554 0-0.554l99.74-99.74q0-0.554 0.554 0l49.87 49.87z" horiz-adv-x="568" />
<glyph unicode="&#xe07c;" d="M496.485-16.485h-425.558q-14.961 0-25.212 10.251t-10.251 25.212v354.632q0 14.961 10.251 25.212t25.212 10.251h425.558q14.961 0 25.212-10.251t10.251-25.212v-354.632q0-14.961-10.251-25.212t-25.212-10.251zM496.485 338.147q0 14.961-10.251 25.212t-25.212 10.251h-354.632q-14.961 0-25.212-10.251t-10.251-25.212v-212.779l124.675 106.389 141.298-123.567 76.468 88.104 83.117-70.927v212.779zM336.901 231.757q-22.164 0-37.68 15.515t-15.515 37.68 15.515 37.679 37.68 15.515 37.68-15.515 15.515-37.679-15.515-37.68-37.68-15.515z" horiz-adv-x="568" />
<glyph unicode="&#xe07d;" d="M390.095 284.952q0-22.164-15.515-37.679t-37.68-15.515-37.68 15.515-15.515 37.68 15.515 37.679 37.68 15.515 37.68-15.515 15.515-37.679zM496.485-16.485h-336.901q22.165 0 37.679 15.515t15.515 37.68-15.515 37.68-37.679 15.515h-17.732v17.731q0 16.623-9.42 30.199t-24.381 19.117l87.55 74.805 141.298-123.567 76.468 88.104 83.117-70.927v212.779q0 14.961-10.251 25.212t-25.212 10.251h-354.632q-14.961 0-25.212-10.251t-10.251-25.212v-180.64q-15.515-5.541-25.489-19.117t-9.974-30.753v265.974q0 14.961 10.251 25.212t25.212 10.251h425.558q14.961 0 25.212-10.251t10.251-25.212v-354.632q0-14.407-10.251-24.935t-25.212-10.528zM70.927 107.637q0 7.204 5.264 12.467t12.468 5.264 12.468-5.264 5.264-12.467v-53.195h53.195q7.203 0 12.468-5.264t5.264-12.467-5.264-12.467-12.468-5.264h-53.195v-53.195q0-7.203-5.264-12.467t-12.468-5.264-12.468 5.264-5.264 12.467v53.195h-53.195q-7.204 0-12.467 5.264t-5.264 12.467 5.264 12.467 12.467 5.264h53.195v53.195z" horiz-adv-x="568" />
<glyph unicode="&#xe07e;" d="M531.948-51.948h-496.485q-14.961 0-25.212 10.251t-10.251 25.212v141.853q0 14.961 10.251 25.212t25.212 10.251h70.927v212.779q0 14.961 10.251 25.212t25.212 10.251h212.779q60.399 0 83.394-22.995t22.995-83.394v-141.853h70.927q14.961 0 25.212-10.251t10.251-25.212v-141.853q0-14.961-10.251-25.212t-25.212-10.251zM354.632 302.684v70.927h-177.316q-14.961 0-25.212-10.251t-10.251-25.212v-177.316h283.705v141.853h-70.927zM248.243 107.637q0-7.204 5.264-12.467t12.467-5.264h35.463q7.204 0 12.467 5.264t5.264 12.467-5.264 12.467-12.467 5.264h-35.463q-7.204 0-12.468-5.264t-5.264-12.467zM425.558 54.442h-283.705q-14.961 0-25.212-10.251t-10.251-25.212 10.251-25.212 25.212-10.251h283.705q14.961 0 25.212 10.251t10.251 25.212-10.251 25.212-25.212 10.251z" horiz-adv-x="568" />
<glyph unicode="&#xe07f;" d="M446.060-16.485l-115.81 116.363 49.87 49.87 116.363-115.81v-50.424h-50.424zM212.779 89.905q-48.208 0-88.935 23.827t-64.554 64.554-23.827 88.935 23.827 88.935 64.554 64.554 88.935 23.827 88.935-23.827 64.554-64.554 23.827-88.935-23.827-88.935-64.554-64.554-88.935-23.827zM212.779 373.611q-44.329 0-75.359-31.030t-31.031-75.36 31.031-75.36 75.359-31.031 75.36 31.031 31.031 75.36-31.031 75.359-75.359 31.031z" horiz-adv-x="568" />
<glyph unicode="&#xe080;" d="M390.095 267.221q0 48.208-23.827 88.935t-64.554 64.554-88.935 23.827-88.935-23.827-64.554-64.554-23.827-88.935 23.827-88.935 64.554-64.554 88.935-23.827 88.935 23.827 64.554 64.554 23.827 88.935zM319.169 231.757h-70.927v-70.926h-70.927v70.927h-70.927v70.927h70.927v70.926h70.927v-70.926h70.927v-70.927zM496.485 33.94l-116.363 115.81-49.87-49.87 115.81-116.363h50.424v50.424z" horiz-adv-x="568" />
<glyph unicode="&#xe081;" d="M496.485 33.94l-116.363 115.81-49.87-49.87 115.81-116.363h50.424v50.424zM390.095 267.221q0 48.208-23.827 88.935t-64.554 64.554-88.935 23.827-88.935-23.827-64.554-64.554-23.827-88.935 23.827-88.935 64.554-64.554 88.935-23.827 88.935 23.827 64.554 64.554 23.827 88.935zM319.169 231.757h-212.779v70.926h212.779v-70.926z" horiz-adv-x="568" />
<glyph unicode="&#xe082;" d="M454.926 138.113l-100.295 58.182 100.294 58.182q12.745 7.204 16.623 21.334t-3.601 26.875-21.611 16.624-26.875-3.879l-100.295-57.627v115.81q0 14.961-10.251 25.212t-25.212 10.251-25.212-10.251-10.251-25.212v-115.81l-100.294 57.627q-12.744 7.757-26.874 3.879t-21.611-16.624-3.602-26.875 16.624-21.334l100.294-58.182-100.294-58.182q-12.745-7.204-16.624-21.334t3.602-26.875 21.611-16.623 26.874 3.879l100.294 57.627v-115.81q0-14.961 10.251-25.212t25.212-10.251 25.212 10.251 10.251 25.212v115.81l100.294-57.627q12.745-7.757 26.875-3.879t21.611 16.623 3.601 26.875-16.623 21.334z" horiz-adv-x="568" />
<glyph unicode="&#xe083;" d="M283.151 480q-58.736 0-100.294-41.558t-41.559-100.295v-319.169q0-43.775 31.308-75.083t75.082-31.308 75.082 31.308 31.308 75.082v319.169q0 29.368-20.779 50.147t-50.147 20.779-50.147-20.779-20.779-50.147v-283.705h35.463v283.705q0 14.407 10.528 24.935t24.935 10.528 24.935-10.528 10.528-24.935v-319.169q0-29.368-20.779-50.147t-50.147-20.779-50.147 20.779-20.779 50.147v319.169q0 43.775 31.308 75.082t75.082 31.308 75.082-31.308 31.308-75.082v-283.705h35.463v283.705q0 58.736-41.558 100.295t-100.295 41.558z" horiz-adv-x="568" />
<glyph unicode="&#xe084;" d="M82.563 396.883q-41.559-41.558-41.559-100.294t41.559-100.295l225.524-225.524q31.031-31.030 75.36-31.030t75.36 31.031 31.031 75.082-31.031 75.082l-75.36 75.359-50.424 49.87-100.294 100.849q-20.502 20.502-49.87 20.502t-50.147-20.779-20.779-50.147 20.502-50.424l200.588-200.589 25.489 25.489-200.589 200.589q-10.528 9.974-10.528 24.935t10.251 25.212 24.935 10.251 25.212-10.528l100.294-100.295 50.424-49.87 74.805-75.36q21.056-20.502 21.056-50.147t-20.779-50.147-50.147-20.502-50.424 20.502l-225.524 225.524q-31.031 31.030-31.031 75.36t31.031 75.359 75.359 31.031 75.359-31.031l200.589-200.589 24.935 24.935-200.589 200.589q-41.559 41.558-100.294 41.558t-100.294-41.558z" horiz-adv-x="568" />
<glyph unicode="&#xe085;" d="M319.169 125.368h70.927v35.463h-35.463v35.463h-35.463v-35.463h-70.927v-70.927h70.927v35.463zM354.632 54.442v35.463h-35.463v-35.463h-70.927v-35.463h70.927v-70.926h70.927v106.389h-35.463zM496.485-16.485h-35.463v-35.463h70.926v177.316h-35.463v-141.853zM531.948 160.831v35.463h-70.927v35.463h-70.927v-35.463h35.463v-177.316h35.463v141.853h70.927zM354.632 444.537v-177.316h177.316v177.316h-177.316zM496.485 302.684h-106.389v106.389h106.389v-106.389zM425.558 373.611h35.463v-35.463h-35.463v35.463zM35.463-51.948h177.316v177.316h-177.316v-177.316zM70.927 89.905h106.389v-106.389h-106.389v106.389zM248.243-16.485h35.463v-35.463h-35.463v35.463zM283.705 409.073h35.463v35.463h-70.927v-141.853h35.463v106.389zM106.389 373.611h35.463v-35.463h-35.463v35.463zM212.779 444.537h-177.316v-177.316h177.316v177.316zM177.316 302.684h-106.389v106.389h106.389v-106.389zM248.243 267.221v-35.463h-212.779v-35.463h35.463v-35.463h35.463v35.463h177.316v35.463h35.463v35.463h-70.927zM106.389 54.442h35.463v-35.463h-35.463v35.463z" horiz-adv-x="568" />
<glyph unicode="&#xe086;" d="M460.467 382.476q0.554-4.433 0.554-8.866v-319.169q0-29.368-20.779-50.147t-50.147-20.779h-195.048q-7.203 0-12.468 5.264t-5.264 12.467 5.264 12.467 12.468 5.264h159.584q29.368 0 50.147 20.779t20.779 50.147v283.705q0 29.368-20.779 50.147t-50.147 20.779h-177.316q-29.368 0-50.147-20.779t-20.779-50.147v-319.169q0-44.329 31.030-75.359t75.359-31.030h177.316q44.329 0 75.359 31.031t31.031 75.359v248.243q0 48.208-36.017 79.792zM195.048 338.147h141.853q7.204 0 12.467-5.264t5.264-12.468-5.264-12.467-12.467-5.264h-141.853q-7.203 0-12.468 5.264t-5.264 12.467 5.264 12.468 12.468 5.264zM195.048 267.221h141.853q7.204 0 12.467-5.264t5.264-12.468-5.264-12.468-12.467-5.264h-141.853q-7.203 0-12.468 5.264t-5.264 12.468 5.264 12.468 12.468 5.264zM195.048 196.295h70.927q7.204 0 12.467-5.264t5.264-12.467-5.264-12.467-12.467-5.264h-70.927q-7.203 0-12.468 5.264t-5.264 12.467 5.264 12.467 12.468 5.264z" horiz-adv-x="568" />
<glyph unicode="&#xe087;" d="M425.558 409.073h-248.243v-424.45q2.77 3.879 11.083 14.407t12.468 16.070 11.913 15.515 12.744 15.515 12.468 13.576 12.744 12.467 11.359 9.143 11.637 6.649 9.974 1.94q14.407 0 37.68-22.164t42.943-48.762 37.68-48.762 23.55-22.165q13.853 0 24.658 10.528t10.805 24.935v390.095q0 14.961-10.251 25.212t-25.212 10.251zM106.389 373.611v-390.095q0-14.407 10.528-24.935t24.935-10.528v461.022q-14.961 0-25.212-10.251t-10.251-25.212z" horiz-adv-x="568" />
<glyph unicode="&#xe088;" d="M461.022 267.221h-70.926v70.927q0 14.961-10.251 25.212t-25.212 10.251h-141.853q-14.961 0-25.212-10.251t-10.251-25.212v-70.927h-70.927q-14.961 0-25.212-10.251t-10.251-25.212v-70.927h425.558v70.927q0 14.961-10.251 25.212t-25.212 10.251zM354.632 267.221h-141.853v53.195q0 7.204 5.264 12.468t12.468 5.264h106.389q7.204 0 12.467-5.264t5.264-12.468v-53.195zM301.437 89.905q7.204 0 12.467 5.264t5.264 12.467-5.264 12.467-12.467 5.264h-35.463q-7.204 0-12.468-5.264t-5.264-12.467 5.264-12.467 12.468-5.264h35.463zM354.632 89.905q0-14.961-10.251-25.212t-25.212-10.251h-70.927q-14.961 0-25.212 10.251t-10.251 25.212v35.463h-141.853v-106.389q0-14.961 10.251-25.212t25.212-10.251h354.632q14.961 0 25.212 10.251t10.251 25.212v106.389h-141.853v-35.463z" horiz-adv-x="568" />
<glyph unicode="&#xe089;" d="M390.095 54.442q-14.961 0-25.212-10.251t-10.251-25.212 10.251-25.212 25.212-10.251 25.212 10.251 10.251 25.212-10.251 25.212-25.212 10.251zM283.705 160.831q-14.961 0-25.212-10.251t-10.251-25.212 10.251-25.212 25.212-10.251 25.212 10.251 10.251 25.212-10.251 25.212-25.212 10.251zM390.095 267.221q-14.961 0-25.212-10.251t-10.251-25.212 10.251-25.212 25.212-10.251 25.212 10.251 10.251 25.212-10.251 25.212-25.212 10.251zM496.485 409.073h-70.927v-35.463q0-14.961-10.251-25.212t-25.212-10.251-25.212 10.251-10.251 25.212v35.463h-141.853v-35.463q0-14.961-10.251-25.212t-25.212-10.251-25.212 10.251-10.251 25.212v35.463h-70.927q-14.961 0-25.212-10.251t-10.251-25.212v-425.559q0-14.961 10.251-25.212t25.212-10.251h425.558q14.961 0 25.212 10.251t10.251 25.212v425.558q0 14.961-10.251 25.212t-25.212 10.251zM496.485-16.485q0-14.961-10.251-25.212t-25.212-10.251h-354.632q-14.961 0-25.212 10.251t-10.251 25.212v283.705q0 14.961 10.251 25.212t25.212 10.251h354.632q14.961 0 25.212-10.251t10.251-25.212v-283.705zM390.095 160.831q-14.961 0-25.212-10.251t-10.251-25.212 10.251-25.212 25.212-10.251 25.212 10.251 10.251 25.212-10.251 25.212-25.212 10.251zM283.705 54.442q-14.961 0-25.212-10.251t-10.251-25.212 10.251-25.212 25.212-10.251 25.212 10.251 10.251 25.212-10.251 25.212-25.212 10.251zM319.169 231.757q0-14.961-10.251-25.212t-25.212-10.251-25.212 10.251-10.251 25.212 10.251 25.212 25.212 10.251 25.212-10.251 10.251-25.212zM177.316 267.221q-14.961 0-25.212-10.251t-10.251-25.212 10.251-25.212 25.212-10.251 25.212 10.251 10.251 25.212-10.251 25.212-25.212 10.251zM390.095 373.611q14.961 0 25.212 10.251t10.251 25.212-10.251 25.212-25.212 10.251-25.212-10.251-10.251-25.212 10.251-25.212 25.212-10.251zM177.316 373.611q14.961 0 25.212 10.251t10.251 25.212-10.251 25.212-25.212 10.251-25.212-10.251-10.251-25.212 10.251-25.212 25.212-10.251zM177.316 54.442q-14.961 0-25.212-10.251t-10.251-25.212 10.251-25.212 25.212-10.251 25.212 10.251 10.251 25.212-10.251 25.212-25.212 10.251zM177.316 160.831q-14.961 0-25.212-10.251t-10.251-25.212 10.251-25.212 25.212-10.251 25.212 10.251 10.251 25.212-10.251 25.212-25.212 10.251z" horiz-adv-x="568" />
<glyph unicode="&#xe08a;" d="M461.022 18.978h-354.632q-14.961 0-25.212 10.251t-10.251 25.212v212.779q0 14.961 10.251 25.212t25.212 10.251h54.303q18.84 32.138 51.532 51.532t71.481 19.394 71.481-19.394 51.533-51.532h54.303q14.961 0 25.212-10.251t10.251-25.212v-212.779q0-14.961-10.251-25.212t-25.212-10.251zM283.705 302.684q-44.329 0-75.359-31.030t-31.030-75.36 31.030-75.36 75.359-31.031 75.359 31.031 31.031 75.36-31.031 75.36-75.36 31.030zM443.29 89.905q-7.204 0-12.467-5.264t-5.264-12.467 5.264-12.467 12.467-5.264 12.467 5.264 5.264 12.467-5.264 12.467-12.467 5.264zM283.705 141.437q-22.719 0-38.788 16.070t-16.070 38.788 16.070 38.788 38.788 16.070 38.788-16.070 16.070-38.788-16.070-38.788-38.788-16.070z" horiz-adv-x="568" />
<glyph unicode="&#xe08b;" d="M531.948 319.308l-177.316-102.511v85.887q0 14.961-10.251 25.212t-25.212 10.251h-248.243q-14.961 0-25.212-10.251t-10.251-25.212v-212.779q0-14.961 10.251-25.212t25.212-10.251h248.243q14.961 0 25.212 10.251t10.251 25.212v85.887l177.316-102.511v246.026z" horiz-adv-x="568" />
<glyph unicode="&#xe08c;" d="M434.424 105.42q-54.303-19.948-30.199-72.589t-28.26-28.26-72.311-29.922-39.896 0-72.311 29.922-28.26 28.26-30.199 72.589q-27.151 9.974-27.151 19.948t27.151 19.948q54.303 19.948 30.199 72.311t27.982 27.983q20.502-9.42 36.017-6.649-14.407 10.528-14.407 28.26v141.853q0 14.961 10.251 25.212t25.212 10.251v-195.048q0-7.203 5.264-12.468t12.467-5.264 12.467 5.264 5.264 12.468v195.047h35.463q14.407 0 24.935-10.251t10.528-25.212v-141.853q0-17.732-14.407-28.26 15.515-2.77 36.017 6.649 52.087 24.381 27.983-27.983t30.199-72.312 0-39.896z" horiz-adv-x="568" />
<glyph unicode="&#xe08d;" d="M283.705 444.537q-50.424 0-96.416-19.671t-79.238-52.918-52.917-79.238-19.671-96.416 19.671-96.416 52.917-79.238 79.238-52.917 96.416-19.671 96.416 19.671 79.238 52.918 52.917 79.238 19.671 96.416-19.671 96.416-52.918 79.238-79.238 52.918-96.416 19.671zM283.705 2.909q-52.641 0-97.247 25.766t-70.373 70.373-25.766 97.247 25.766 97.247 70.373 70.373 97.247 25.766 97.247-25.766 70.373-70.373 25.766-97.247-25.766-97.247-70.373-70.373-97.247-25.766zM283.705 302.684h-35.463v-141.853h141.853v35.463h-106.389v106.389z" horiz-adv-x="568" />
<glyph unicode="&#xe08e;" d="M489.836 210.147q6.649 18.84 6.649 39.342 0 51.532-36.294 87.827t-87.827 36.295q-31.031 0-57.627-14.13t-43.775-38.511q-26.597 17.178-58.182 17.178-43.775 0-74.805-31.031t-31.031-75.359v-6.095q-31.585-10.528-51.532-38.234t-19.948-62.060q0-44.329 31.030-75.359t75.359-31.031h283.705q44.329 0 75.36 31.031t31.030 75.36q0 25.489-11.082 47.654t-31.031 37.125z" horiz-adv-x="568" />
<glyph unicode="&#xe08f;" d="M454.926 60.537q6.095 13.853 6.095 29.368v141.853q0 29.368-20.779 50.147t-50.147 20.779h-177.316q-15.515 0-29.368-6.095 8.866 18.84 26.321 30.199t38.511 11.359h177.316q29.368 0 50.147-20.779t20.779-50.147v-141.853q0-21.056-11.36-38.511t-30.199-26.32zM425.558 196.295v-106.389q0-29.368-20.779-50.147t-50.147-20.779h-177.316q-29.368 0-50.147 20.779t-20.779 50.147v106.389q0 29.368 20.779 50.147t50.147 20.779h177.316q29.368 0 50.147-20.779t20.779-50.147zM141.853 125.368v-35.463q0-14.961 10.251-25.212t25.212-10.251h177.316q14.961 0 25.212 10.251t10.251 25.212v35.463q0 14.961-10.251 25.212t-25.212 10.251h-177.316q-14.961 0-25.212-10.251t-10.251-25.212z" horiz-adv-x="568" />
<glyph unicode="&#xe090;" d="M106.389-16.485v390.095h106.389v-390.095h-106.389zM248.243-16.485v390.095h106.389v-390.095h-106.389zM390.095-16.485v390.095h106.389v-390.095h-106.389z" horiz-adv-x="568" />
<glyph unicode="&#xe091;" d="M283.705 373.611q-57.627 0-106.666-21.887t-77.576-59.29-28.537-81.177q0-38.234 21.334-71.204t59.013-55.688q1.662-15.515-2.494-31.308t-10.805-27.706-14.13-21.611-12.191-14.961-5.264-5.264q3.879 1.108 10.805 2.771t26.043 8.312 35.186 13.853 33.524 19.117 26.321 24.658q23.273-3.879 45.437-3.879 57.627 0 106.666 21.887t77.576 59.29 28.537 81.454-28.537 81.454-77.576 59.29-106.666 21.887z" horiz-adv-x="568" />
<glyph unicode="&#xe092;" d="M283.705 373.611q-57.627 0-106.666-21.887t-77.576-59.29-28.537-81.177q0-38.234 21.334-71.204t59.013-55.688q1.662-15.515-2.494-31.308t-10.805-27.706-14.13-21.611-12.191-14.961-5.264-5.264q3.879 1.108 10.805 2.771t26.043 8.312 35.186 13.853 33.524 19.117 26.321 24.658q23.273-3.879 45.437-3.879 57.627 0 106.666 21.887t77.576 59.29 28.537 81.454-28.537 81.454-77.576 59.29-106.666 21.887zM285.368 81.039q-22.719 0-59.844 6.095-11.637-16.623-25.489-29.645t-22.165-18.009l-7.757-4.987q2.216 2.771 4.987 8.312t6.649 23.55 1.662 37.403q-31.584 18.84-52.641 48.485t-21.056 59.567q0 54.303 51.255 92.537t124.121 38.234 124.121-38.234 51.255-92.537-51.255-92.537-123.844-38.234z" horiz-adv-x="568" />
<glyph unicode="&#xe093;" d="M212.779 373.611q-48.208 0-88.935-18.009t-64.554-49.316-23.827-67.879q0-31.584 17.731-59.29t49.316-46.546q1.108-12.745-2.216-26.043t-8.866-23.272-11.636-18.009-10.251-12.467-4.71-4.433q3.325 1.108 9.143 2.493t21.611 6.926 29.368 11.637 27.983 16.070 22.165 20.502q19.394-3.325 37.679-3.325 48.208 0 88.935 18.286t64.554 49.316 23.827 67.879-23.827 68.156-64.554 49.316-88.935 18.009zM466.563 65.524q30.476 18.84 47.931 45.991t17.455 58.182q0 41.005-30.199 74.528t-78.407 48.485q17.178-30.476 17.178-63.723 0-63.169-55.411-109.437t-136.866-52.363q48.762-30.476 109.715-30.476 18.286 0 37.125 3.325 11.637-16.623 38.511-30.753t47.93-20.225l21.611-5.541-4.433 4.433t-9.697 11.637-11.913 18.286-8.589 22.442-1.94 25.212z" horiz-adv-x="568" />
<glyph unicode="&#xe094;" d="M212.779 373.611q-48.208 0-88.935-18.009t-64.554-49.316-23.827-67.879q0-31.584 17.731-59.29t49.316-46.546q1.108-12.745-2.216-26.043t-8.866-23.272-11.636-18.009-10.251-12.467-4.71-4.433q3.325 1.108 9.143 2.493t21.611 6.926 29.368 11.637 27.983 16.070 22.165 20.502q19.394-3.325 37.679-3.325 48.208 0 88.935 18.286t64.554 49.316 23.827 67.879-23.827 68.156-64.554 49.316-88.935 18.009zM212.779 132.017q-14.407 0-39.896 3.879-9.42-13.298-22.165-23.55t-21.056-13.576l-8.311-3.879q2.216 2.216 4.987 6.095t6.927 18.009 2.494 29.645q-25.489 15.515-43.498 40.45t-18.008 48.762q0 43.775 40.45 74.805t98.078 31.031 98.078-31.031 40.45-74.805-40.45-74.805-98.078-31.031zM466.563 65.524q30.476 18.84 47.931 45.991t17.455 58.182q0 41.005-30.199 74.528t-78.407 48.485q17.178-30.476 17.178-63.723 0-63.169-55.411-109.437t-136.866-52.363q48.762-30.476 109.715-30.476 18.286 0 37.125 3.325 11.637-16.623 38.511-30.753t47.93-20.225l21.611-5.541-4.433 4.433t-9.697 11.637-11.913 18.286-8.589 22.442-1.94 25.212z" horiz-adv-x="568" />
<glyph unicode="&#xe095;" d="M461.022 338.147h-354.632q-14.961 0-25.212-10.251t-10.251-25.212v-35.463h425.558v35.463q0 14.961-10.251 25.212t-25.212 10.251zM70.927 89.905q0-14.407 10.251-24.935t25.212-10.528h354.632q14.961 0 25.212 10.528t10.251 24.935v106.389h-425.558v-106.389zM230.511 160.831h106.389q7.204 0 12.467-5.264t5.264-12.467-5.264-12.467-12.467-5.264h-106.389q-7.203 0-12.468 5.264t-5.264 12.467 5.264 12.467 12.468 5.264zM124.121 160.831h35.463q7.203 0 12.468-5.264t5.264-12.467-5.264-12.467-12.468-5.264h-35.463q-7.204 0-12.468 5.264t-5.264 12.467 5.264 12.467 12.468 5.264z" horiz-adv-x="568" />
<glyph unicode="&#xe096;" d="M496.485 196.295q-14.961 0-25.212-10.251t-10.251-25.212v-141.853h-354.632v141.853q0 14.961-10.251 25.212t-25.212 10.251-25.212-10.251-10.251-25.212v-177.316q0-14.961 10.251-25.212t25.212-10.251h425.558q14.961 0 25.212 10.251t10.251 25.212v177.316q0 14.961-10.251 25.212t-25.212 10.251zM283.705 89.905l123.013 177.316h-87.55v141.853q0 14.961-10.251 25.212t-25.212 10.251-25.212-10.251-10.251-25.212v-141.853h-87.55z" horiz-adv-x="568" />
<glyph unicode="&#xe097;" d="M212.779 267.221v106.389h70.927v-106.389h-70.927zM319.169 267.221v106.389h70.927v-106.389h-70.927zM212.779 125.368v106.389h70.927v-106.389h-70.927zM319.169 125.368v106.389h70.927v-106.389h-70.927zM212.779-16.485v106.389h70.927v-106.389h-70.927zM319.169-16.485v106.389h70.927v-106.389h-70.927z" horiz-adv-x="568" />
<glyph unicode="&#xe098;" d="M212.779 302.684v70.927h70.927v-70.927h-70.927zM319.169 302.684v70.927h70.927v-70.927h-70.927zM212.779 196.295v70.926h70.927v-70.926h-70.927zM319.169 196.295v70.926h70.927v-70.926h-70.927zM212.779 89.905v70.927h70.927v-70.927h-70.927zM319.169 89.905v70.927h70.927v-70.927h-70.927zM212.779-16.485v70.927h70.927v-70.927h-70.927zM319.169-16.485v70.927h70.927v-70.927h-70.927z" horiz-adv-x="568" />
<glyph unicode="&#xe099;" d="M283.705 150.303l-186.736 186.736q4.987 1.108 9.42 1.108h354.632q4.433 0 9.42-1.108zM308.64 125.368l186.736 186.736q1.108-4.987 1.108-9.42v-212.779q0-4.433-1.108-9.42l-110.822 110.822-24.935-24.935 110.822-110.822q-4.987-1.108-9.42-1.108h-354.632q-4.433 0-9.42 1.108l110.823 110.822-24.935 24.935-110.823-110.822q-1.108 4.987-1.108 9.42v212.779q0 4.433 1.108 9.42l211.671-211.671z" horiz-adv-x="568" />
<glyph unicode="&#xe09a;" d="M283.705 410.736l178.978-178.978q2.771 0 7.757-1.108l-186.736-186.736-186.736 186.736q4.987 1.108 7.757 1.108zM283.705-3.74l1.108-1.108 210.563 210.563q1.108-4.987 1.108-9.42v-212.779q0-4.433-1.108-9.42l-110.822 110.822-24.935-24.935 110.822-110.822q-4.987-1.108-9.42-1.108h-354.632q-4.433 0-9.42 1.108l110.823 110.822-24.935 24.935-110.823-110.822q-1.108 4.987-1.108 9.42v212.779q0 4.433 1.108 9.42l210.563-210.563z" horiz-adv-x="568" />
<glyph unicode="&#xe09b;" d="M283.705 249.489q-22.164 0-37.679-15.515t-15.515-37.68 15.515-37.68 37.68-15.515 37.68 15.515 15.515 37.68-15.515 37.679-37.68 15.515zM283.705 373.611q-88.104 0-159.584-49.039t-103.065-128.277q31.584-79.238 103.065-128.277t159.584-49.039 159.584 49.039 103.065 128.277q-31.585 79.238-103.065 128.277t-159.584 49.039zM283.705 89.905q-44.329 0-75.359 31.031t-31.030 75.359 31.030 75.36 75.359 31.030 75.359-31.030 31.031-75.36-31.031-75.36-75.36-31.031z" horiz-adv-x="568" />
<glyph unicode="&#xe09c;" d="M425.558-16.485h-283.705q-14.961 0-25.212 10.251t-10.251 25.212v354.632q0 14.961 10.251 25.212t25.212 10.251h212.779q17.178 0 42.666-19.394t44.606-44.883 19.117-42.112v-283.705q0-14.961-10.251-25.212t-25.212-10.251zM354.632 302.684v70.927h-177.316q-14.961 0-25.212-10.251t-10.251-25.212v-283.706q0-14.961 10.251-25.212t25.212-10.251h212.779q14.961 0 25.212 10.251t10.251 25.212v248.243h-70.927z" horiz-adv-x="568" />
<glyph unicode="&#xe09d;" d="M478.753 18.978h-53.195v-53.195q0-7.203-5.264-12.467t-12.467-5.264-12.467 5.264-5.264 12.467v53.195h-53.195q-7.204 0-12.467 5.264t-5.264 12.467 5.264 12.467 12.467 5.264h53.195v53.195q0 7.204 5.264 12.467t12.467 5.264 12.467-5.264 5.264-12.467v-53.195h53.195q7.204 0 12.467-5.264t5.264-12.467-5.264-12.467-12.467-5.264zM425.558 157.507v145.178h-70.927v70.926h-177.316q-14.961 0-25.212-10.251t-10.251-25.212v-283.705q0-14.961 10.251-25.212t25.212-10.251h109.715q5.541-15.515 19.117-25.489t30.753-9.974h-195.048q-14.961 0-25.212 10.251t-10.251 25.212v354.632q0 14.961 10.251 25.212t25.212 10.251h212.779q17.178 0 42.666-19.117t44.606-44.606 19.117-42.666v-195.048q0 17.178-9.974 30.753t-25.489 19.117z" horiz-adv-x="568" />
<glyph unicode="&#xe09e;" d="M425.558 409.073h-283.705q-14.961 0-25.212-10.251t-10.251-25.212v-390.095q0-14.961 10.251-25.212t25.212-10.251h283.705q14.961 0 25.212 10.251t10.251 25.212v390.095q0 14.961-10.251 25.212t-25.212 10.251zM159.584-16.485q-7.203 0-12.468 5.264t-5.264 12.467 5.264 12.467 12.468 5.264 12.468-5.264 5.264-12.467-5.264-12.467-12.468-5.264zM159.584 54.442q-7.203 0-12.468 5.264t-5.264 12.467 5.264 12.467 12.468 5.264 12.468-5.264 5.264-12.467-5.264-12.467-12.468-5.264zM159.584 125.368q-7.203 0-12.468 5.264t-5.264 12.467 5.264 12.467 12.468 5.264 12.468-5.264 5.264-12.467-5.264-12.467-12.468-5.264zM159.584 196.295q-7.203 0-12.468 5.264t-5.264 12.467 5.264 12.468 12.468 5.264 12.468-5.264 5.264-12.468-5.264-12.467-12.468-5.264zM159.584 267.221q-7.203 0-12.468 5.264t-5.264 12.467 5.264 12.468 12.468 5.264 12.468-5.264 5.264-12.468-5.264-12.467-12.468-5.264zM159.584 338.147q-7.203 0-12.468 5.264t-5.264 12.468 5.264 12.467 12.468 5.264 12.468-5.264 5.264-12.467-5.264-12.468-12.468-5.264zM354.632 18.978q0-14.961-10.251-25.212t-25.212-10.251h-70.927q-14.961 0-25.212 10.251t-10.251 25.212v35.463q0 14.961 10.251 25.212t25.212 10.251h70.927q14.961 0 25.212-10.251t10.251-25.212v-35.463zM354.632 160.831q0-14.961-10.251-25.212t-25.212-10.251h-70.927q-14.961 0-25.212 10.251t-10.251 25.212v35.463q0 14.961 10.251 25.212t25.212 10.251h70.927q14.961 0 25.212-10.251t10.251-25.212v-35.463zM354.632 302.684q0-14.961-10.251-25.212t-25.212-10.251h-70.927q-14.961 0-25.212 10.251t-10.251 25.212v35.463q0 14.961 10.251 25.212t25.212 10.251h70.927q14.961 0 25.212-10.251t10.251-25.212v-35.463zM407.827-16.485q-7.204 0-12.467 5.264t-5.264 12.467 5.264 12.467 12.467 5.264 12.467-5.264 5.264-12.467-5.264-12.467-12.467-5.264zM407.827 54.442q-7.204 0-12.467 5.264t-5.264 12.467 5.264 12.467 12.467 5.264 12.467-5.264 5.264-12.467-5.264-12.467-12.467-5.264zM407.827 125.368q-7.204 0-12.467 5.264t-5.264 12.467 5.264 12.467 12.467 5.264 12.467-5.264 5.264-12.467-5.264-12.467-12.467-5.264zM407.827 196.295q-7.204 0-12.467 5.264t-5.264 12.467 5.264 12.468 12.467 5.264 12.467-5.264 5.264-12.468-5.264-12.467-12.467-5.264zM407.827 267.221q-7.204 0-12.467 5.264t-5.264 12.467 5.264 12.468 12.467 5.264 12.467-5.264 5.264-12.468-5.264-12.467-12.467-5.264zM407.827 338.147q-7.204 0-12.467 5.264t-5.264 12.468 5.264 12.467 12.467 5.264 12.467-5.264 5.264-12.467-5.264-12.468-12.467-5.264z" horiz-adv-x="568" />
<glyph unicode="&#xe09f;" d="M461.022 338.147h-72.034q-17.178 0-53.195-17.732t-53.195-17.731h-69.818q-14.961 0-25.212-10.251t-10.251-25.212v-141.853q0-14.961 10.251-25.212t25.212-10.251h68.71q17.178 0 54.026 17.731t54.58 17.731h70.927q14.961 0 25.212 10.251t10.251 25.212v141.853q0 14.961-10.251 25.212t-25.212 10.251zM124.121 392.45q-14.961 0-25.766-10.805t-10.805-25.766q0-21.611 18.84-32.139v-322.493q0-7.204 5.264-12.467t12.468-5.264 12.467 5.264 5.264 12.467v322.493q18.84 10.528 18.84 32.138 0 14.961-10.805 25.766t-25.766 10.805z" horiz-adv-x="568" />
<glyph unicode="&#xe0a0;" d="M478.753 54.442h-53.195v-53.195q0-7.204-5.264-12.467t-12.467-5.264-12.467 5.264-5.264 12.467v53.195h-53.195q-7.204 0-12.467 5.264t-5.264 12.467 5.264 12.467 12.467 5.264h53.195v53.195q0 7.204 5.264 12.467t12.467 5.264 12.467-5.264 5.264-12.467v-53.195h53.195q7.204 0 12.467-5.264t5.264-12.467-5.264-12.467-12.467-5.264zM354.632 143.099v-17.731h-17.731q-22.164 0-37.68-15.515t-15.515-37.68q0-8.866 3.325-17.731h-180.641q-14.961 0-25.212 10.251t-10.251 25.212v177.316q0 14.961 10.251 25.212t25.212 10.251h283.706q14.961 0 25.212-10.251t10.251-25.212v-74.251q-8.866 3.325-17.731 3.325-22.164 0-37.68-15.515t-15.515-37.68zM70.927 328.727v9.42q0 14.961 10.251 25.212t25.212 10.251h106.389q14.961 0 25.212-10.251t10.251-25.212h-141.853q-18.84 0-35.463-9.42z" horiz-adv-x="568" />
<glyph unicode="&#xe0a1;" d="M425.558 52.225h-283.705q-14.961 0-25.212 10.251t-10.251 24.658v177.316q0 14.961 10.251 25.489t25.212 10.528h283.705q14.961 0 25.212-10.528t10.251-25.489v-177.316q0-14.407-10.251-24.658t-25.212-10.251zM106.389 325.957v9.42q0 14.961 10.251 25.212t25.212 10.251h106.389q14.961 0 25.212-10.251t10.251-25.212h-141.853q-18.84 0-35.463-9.42z" horiz-adv-x="568" />
<glyph unicode="&#xe0a2;" d="M498.702 196.295l-103.619-108.606q-10.528-15.515-25.212-25.489t-28.537-9.974h-236.606q-18.84 0-33.801 10.528t-1.662 24.935l120.242 108.606q18.84 17.178 32.969 26.32t27.428 9.143h229.957q15.515 0 21.887-10.528t-3.048-24.935zM372.363 267.221h-195.048v35.463q0 14.407-10.251 24.935t-25.212 10.528h-35.463q-14.961 0-25.212-10.528t-10.251-24.935v-141.853q0-12.745 8.311-22.719l-35.463-35.463q-8.312 9.974-8.312 22.719v177.316q1.108 32.692 19.948 51.81t50.979 19.117h35.463q32.138-1.108 51.532-19.948t19.394-50.979h159.584q7.204 0 12.467-5.264t5.264-12.467-5.264-12.467-12.467-5.264z" horiz-adv-x="568" />
<glyph unicode="&#xe0a3;" d="M425.558 229.541v-88.658q0-7.757-5.264-12.745t-12.467-4.987-12.467 4.987-5.264 12.745v88.658h-82.009l98.632 117.472 100.849-117.472h-82.009zM283.705 200.728h70.926v-42.113q0-29.922 20.779-50.424t50.147-20.502q0-14.961-10.251-25.212t-25.212-10.251h-283.705q-14.961 0-25.212 10.251t-10.251 25.212v177.316q0 14.407 10.251 24.935t25.212 10.528h217.766l-39.896-50.978zM70.927 325.957v9.974q0 14.407 10.251 24.935t25.212 10.528h106.389q14.961 0 25.212-10.528t10.251-24.935h-141.853q-18.84 0-35.463-9.974z" horiz-adv-x="568" />
<glyph unicode="&#xe0a4;" d="M537.489 190.753q14.407-2.216 22.995-14.407t5.818-26.598l-6.095-34.909q-2.216-14.407-14.407-22.719t-26.597-6.095l-42.666 7.757q-9.42-20.502-23.272-37.68l27.151-39.342q8.866-12.19 6.095-26.598t-14.407-22.719l-29.368-20.502q-12.19-8.312-26.598-5.818t-22.719 14.684l-27.151 38.788q-22.164-7.757-44.883-9.974l-7.757-42.113q-2.216-14.407-14.407-22.995t-26.598-5.818l-34.909 6.095q-14.407 2.216-22.719 14.407t-6.095 26.597l7.757 42.113q-21.056 9.974-39.342 24.935l-38.788-27.151q-11.636-8.312-26.32-5.818t-22.996 14.684l-19.948 28.814q-8.866 12.19-6.095 26.598t14.407 22.719l39.342 27.705q-7.757 21.057-9.974 43.221l-41.558 7.757q-14.407 2.216-22.995 14.407t-5.818 26.598l6.095 34.909q2.217 14.407 14.407 22.719t26.597 6.095l42.112-7.758q9.974 21.057 24.935 39.342l-28.26 39.896q-8.311 12.19-5.818 26.597t14.684 22.719l28.814 20.502q12.19 8.312 26.597 5.818t23.273-14.684l28.26-40.45q21.057 7.204 43.221 9.42l7.757 42.112q2.216 14.407 14.407 22.995t26.598 5.818l34.909-6.095q14.407-2.216 22.719-14.407t6.095-26.598l-7.757-42.113q19.948-9.974 37.68-23.827l40.45 28.26q12.19 8.312 26.598 5.818t22.718-14.684l20.502-28.814q8.312-12.191 5.818-26.598t-14.684-22.719l-39.896-28.26q7.204-22.164 9.974-44.883zM320 284.399q-43.498 7.757-79.515-17.454t-43.775-68.71 17.732-79.515 68.71-43.775 79.515 17.454 43.775 68.71-17.731 79.515-68.71 43.775z" horiz-adv-x="568" />
<glyph unicode="&#xe0a5;" d="M466.009 172.19q-65.94-24.104-36.294-87.827t-34.078-34.078-87.827-36.294-48.208 0-87.827 36.294-34.078 34.078-36.294 87.827 0 48.208 36.294 87.827 34.078 34.078 87.827 36.295 48.208 0 87.827-36.295 34.078-34.078 36.294-87.827 0-48.208zM283.705 267.221q-29.368 0-50.147-20.779t-20.779-50.147 20.779-50.147 50.147-20.779 50.147 20.779 20.779 50.147-20.779 50.147-50.147 20.779z" horiz-adv-x="568" />
<glyph unicode="&#xe0a6;" d="M542.476 239.238q-38.234-14.13-21.057-50.978t-19.671-19.671-50.978-21.056-27.983 0-50.978 21.057-19.948 19.671-21.057 50.978 0 27.983 21.057 50.702 19.948 19.948 50.978 21.333 27.983 0 50.978-21.333 19.671-19.948 21.057-50.702 0-27.983zM436.64 294.373q-17.178 0-29.091-12.19t-11.913-29.091 11.913-29.091 29.091-12.19 29.091 12.19 11.913 29.091-11.913 29.091-29.091 12.19zM353.247 361.697q-32.416-11.913-17.731-43.221t-16.623-16.624-43.221-17.731-23.827 0-43.221 17.731-16.9 16.624-17.732 43.221 0 23.827 17.732 43.221 16.9 16.9 43.221 17.732 23.827 0 43.221-17.732 16.623-16.9 17.731-43.221 0-23.827zM263.757 408.519q-14.407 0-24.658-10.251t-10.251-24.658 10.251-24.658 24.658-10.251 24.658 10.251 10.251 24.658-10.251 24.658-24.658 10.251zM192 240.070q19.671 54.303 39.619 0t72.311-30.199 28.26-28.26 30.199-72.312q27.151-9.974 27.151-19.948t-27.151-19.394q-54.303-19.948-29.922-72.589t-28.26-28.26-72.589-29.922-39.619 0-72.311 29.922-28.26 28.26-29.922 72.589q-27.151 9.42-27.151 19.394t27.151 19.948q54.303 19.948 29.922 72.311t28.26 28.26 72.311 30.199zM153.489 89.627q0-24.104 17.178-41.281t41.281-17.178 41.281 17.178 17.177 41.281-17.178 41.281-41.281 17.178-41.281-17.178-17.178-41.281z" horiz-adv-x="568" />
<glyph unicode="&#xe0a7;" d="M496.485 89.905h-70.927v-106.389q0-14.961-10.251-25.212t-25.212-10.251h-283.705q-14.961 0-25.212 10.251t-10.251 25.212v390.095q0 14.961 10.251 25.212t25.212 10.251h283.705q14.961 0 25.212-10.251t10.251-25.212v-35.463h70.927q14.961 0 25.212-10.251t10.251-25.212v-177.316q0-14.961-10.251-25.212t-25.212-10.251zM390.095 125.368v212.779q0 14.961-10.251 25.212t-25.212 10.251h-212.779q-14.961 0-25.212-10.251t-10.251-25.212v-283.705q0-14.961 10.251-25.212t25.212-10.251v265.974q0 7.204 5.264 12.468t12.468 5.264 12.468-5.264 5.264-12.468v-265.974h35.463v248.243q0 14.961 10.251 25.212t25.212 10.251 25.212-10.251 10.251-25.212v-248.243h35.463v265.974q0 7.204 5.264 12.468t12.467 5.264 12.467-5.264 5.264-12.468v-265.974q14.961 0 25.212 10.251t10.251 25.212v70.927zM496.485 284.952q0 7.203-5.264 12.467t-12.467 5.264h-53.195v-177.316h53.195q7.204 0 12.467 5.264t5.264 12.467v141.853z" horiz-adv-x="568" />
<glyph unicode="&#xe0a8;" d="M461.022 402.424v6.65h-354.632v-6.65l141.853-141.853v-241.593h-70.927q-14.961 0-25.212-10.251t-10.251-25.212h283.705q0 14.961-10.251 25.212t-25.212 10.251h-70.927v241.593z" horiz-adv-x="568" />
<glyph unicode="&#xe0a9;" d="M425.558 89.905h-35.463q0-44.329-31.031-75.36t-75.36-31.031h-70.927q-44.329 0-75.359 31.031t-31.031 75.36v177.316h283.705v-35.463h35.463q14.961 0 25.212-10.251t10.251-25.212v-70.926q0-14.961-10.251-25.212t-25.212-10.251zM425.558 178.563q0 7.204-5.264 12.467t-12.467 5.264h-17.731v-70.927h17.731q7.204 0 12.467 5.264t5.264 12.467v35.463zM336.901 373.611q-7.204 0-12.467 5.264t-5.264 12.467 5.264 12.468 12.467 5.264 12.467-5.264 5.264-12.468-5.264-12.467-12.467-5.264zM265.974 302.684q-7.204 0-12.468 5.264t-5.264 12.468v70.926q0 7.204 5.264 12.468t12.468 5.264 12.467-5.264 5.264-12.468v-70.926q0-7.204-5.264-12.468t-12.467-5.264zM195.048 302.684q-7.203 0-12.468 5.264t-5.264 12.468 5.264 12.468 12.468 5.264 12.468-5.264 5.264-12.468-5.264-12.468-12.468-5.264z" horiz-adv-x="568" />
<glyph unicode="&#xe0aa;" d="M319.169 125.368q44.329 0 75.36 31.031t31.031 75.359v177.316h-283.705v-177.316q0-44.329 31.030-75.359t75.359-31.031v-106.389h-70.927q-14.961 0-25.212-10.251t-10.251-25.212h283.705q0 14.961-10.251 25.212t-25.212 10.251h-70.926v106.389z" horiz-adv-x="568" />
<glyph unicode="&#xe0ab;" d="M390.095 89.905h106.389v-106.389h-106.389v106.389zM390.095 231.757h106.389v-106.389h-106.389v106.389zM248.243 373.611h106.389v-106.389h-106.389v106.389zM390.095 373.611h106.389v-106.389h-106.389v106.389zM106.389 373.611h106.389v-106.389h-106.389v106.389zM248.243 231.757h106.389v-106.389h-106.389v106.389zM106.389 89.905h106.389v-106.389h-106.389v106.389zM106.389 231.757h106.389v-106.389h-106.389v106.389zM248.243 89.905h106.389v-106.389h-106.389v106.389z" horiz-adv-x="568" />
<glyph unicode="&#xe0ac;" d="M319.169 160.831h177.316v-177.316h-177.316v177.316zM319.169 373.611h177.316v-177.316h-177.316v177.316zM106.389 373.611h177.316v-177.316h-177.316v177.316zM106.389 160.831h177.316v-177.316h-177.316v177.316z" horiz-adv-x="568" />
<glyph unicode="&#xe0ad;" d="M514.77 231.757h-459.913q-22.165 0-37.679-15.792t-15.515-37.68 15.515-37.402 37.679-15.515h459.913q21.611 0 37.125 15.515t15.515 37.403-15.515 37.68-37.125 15.792z" horiz-adv-x="568" />
<glyph unicode="&#xe0ae;" d="M301.437 480q22.164 0 37.68-15.515t15.515-37.68v-461.022q0-22.164-15.515-37.679t-37.68-15.515-37.68 15.515-15.515 37.679v461.022q0 22.164 15.515 37.68t37.68 15.515z" horiz-adv-x="568" />
<glyph unicode="&#xe0af;" d="M540.814 186.875l-79.792 79.792v124.675q0 7.204-10.251 12.468t-24.935 5.264-25.212-5.264-10.528-12.468v-53.749l-80.901 80.901q-9.974 9.974-25.766 9.974t-26.32-9.974l-231.619-231.619q-11.082-11.082-7.48-19.671t19.117-8.589h34.909q13.853 0 23.827-9.697t9.974-23.55v-140.19q0-15.515 10.805-26.321t25.766-10.805h105.835v141.853q0 14.961 10.528 25.212t25.212 10.251 24.935-10.251 10.251-25.212v-141.853h104.728q15.515 0 26.32 10.805t10.805 26.32v140.19q0 13.853 9.697 23.55t23.55 9.697h35.463q15.515 0 18.84 8.312t-7.758 19.948z" horiz-adv-x="568" />
<glyph unicode="&#xe0b0;" d="M524.191 165.818l-51.533 233.281q-4.433 19.394-20.779 32.416t-35.74 13.022h-264.866q-19.394 0-35.74-13.022t-20.779-32.416l-51.532-233.281q-7.758-33.801-7.758-68.71v-99.186q0-20.502 14.684-35.186t35.186-14.684h396.745q20.502 0 35.186 14.684t14.684 35.186v99.186q0 34.909-7.758 68.71zM491.498 129.524q-4.433-5.818-12.745-5.818h-106.389q-6.649 0-11.36-4.71t-4.71-11.36v-35.463q0-8.312-5.541-13.853t-13.853-5.541h-106.389q-8.311 0-13.853 5.541t-5.541 13.853v35.463q0 6.649-4.71 11.36t-11.359 4.71h-106.389q-8.311 0-12.745 5.818t-2.77 13.576l53.195 238.822q1.662 7.757 8.311 13.298t14.961 5.541h268.19q8.312 0 14.961-5.541t8.312-13.298l53.195-238.822q1.663-7.757-2.771-13.576z" horiz-adv-x="568" />
<glyph unicode="&#xe0b1;" d="M390.095 160.277q-18.84 0-37.125 4.987l-164.571-164.572q-19.394-19.394-47.376-20.502t-49.039 17.178v105.835q27.151 15.515 53.195 42.113 7.757 7.204 31.584 49.039t32.692 51.255q3.325 2.77 14.407-12.468t14.407-11.914q11.083 11.083 21.611 23.827-12.19 27.151-12.19 57.627 0 58.736 41.558 100.295t100.572 41.558 100.572-41.558 41.558-100.572-41.558-100.572-100.294-41.558zM270.407 243.948l-177.316-177.316 25.489-25.489 177.316 177.316zM407.827 373.611q-22.164 0-37.68-15.515t-15.515-37.68 15.515-37.68 37.68-15.515 37.68 15.515 15.515 37.679-15.515 37.68-37.68 15.515z" horiz-adv-x="568" />
<glyph unicode="&#xe0b2;" d="M496.485 444.537h-283.705q-14.961 0-25.212-10.251t-10.251-25.212v-88.658q0-7.204 5.264-12.468t12.468-5.264 12.468 5.264 5.264 12.468v53.195q0 14.961 10.251 25.212t25.212 10.251h212.779q14.961 0 25.212-10.251t10.251-25.212v-354.632q0-14.961-10.251-25.212t-25.212-10.251h-212.779q-14.961 0-25.212 10.251t-10.251 25.212v53.195q0 7.204-5.264 12.467t-12.468 5.264-12.468-5.264-5.264-12.467v-88.658q0-14.961 10.251-25.212t25.212-10.251h283.705q14.961 0 25.212 10.251t10.251 25.212v425.558q0 14.961-10.251 25.212t-25.212 10.251zM248.243 94.892l176.208 101.957-176.208 101.957v-67.048h-177.316q-14.961 0-25.212-10.251t-10.251-25.212 10.251-25.212 25.212-10.251h177.316v-65.94z" horiz-adv-x="568" />
<glyph unicode="&#xe0b3;" d="M336.901 89.905q-7.204 0-12.467-5.264t-5.264-12.467v-53.195q0-14.961-10.251-25.212t-25.212-10.251h-212.779q-14.961 0-25.212 10.251t-10.251 25.212v354.632q0 14.407 10.251 24.935t25.212 10.528h212.779q14.961 0 25.212-10.528t10.251-24.935v-53.195q0-7.204 5.264-12.468t12.467-5.264 12.467 5.264 5.264 12.468v88.658q0 14.407-10.251 24.935t-25.212 10.528h-283.705q-14.961 0-25.212-10.528t-10.251-24.935v-425.558q0-14.961 10.251-25.212t25.212-10.251h283.705q14.961 0 25.212 10.251t10.251 25.212v88.658q0 7.204-5.264 12.467t-12.467 5.264zM566.303 196.849l-176.208 101.957v-67.048h-177.316q-14.961 0-25.212-10.528t-10.251-25.212 10.251-24.935 25.212-10.251h177.316v-65.94z" horiz-adv-x="568" />
<glyph unicode="&#xe0b4;" d="M283.705-51.948q-7.204 8.866-19.117 24.381t-42.666 59.013-54.026 81.731-42.389 82.563-19.117 71.481q0 48.208 23.827 88.935t64.554 64.554 88.935 23.827 88.935-23.827 64.554-64.554 23.827-88.935q0-27.151-18.286-70.095t-44.329-85.057-52.087-79.515-44.329-61.23-18.286-23.273zM283.705 374.164q-44.329 0-75.637-31.308t-31.308-75.636 31.308-75.637 75.637-31.308 75.637 31.308 31.308 75.637-31.308 75.637-75.637 31.308z" horiz-adv-x="568" />
<glyph unicode="&#xe0b5;" d="M461.022 373.611l-137.974-106.389h-216.658q-14.961 0-25.212-10.251t-10.251-25.212v-70.927q0-14.961 10.251-25.212t25.212-10.251h35.463v-70.927q0-14.961 10.251-25.212t25.212-10.251 25.212 10.251 10.251 25.212v70.927h110.269l137.974-106.389q14.961 0 25.212 10.251t10.251 25.212v283.705q0 14.407-10.528 24.935t-24.935 10.528z" horiz-adv-x="568" />
<glyph unicode="&#xe0b6;" d="M177.316 373.611v-257.663q-16.624 9.42-35.463 9.42-29.368 0-50.147-20.779t-20.779-50.147 20.779-50.147 50.147-20.779 50.147 20.779 20.779 50.147v252.675l212.779 26.598v-182.303q-16.623 9.42-35.463 9.42-29.368 0-50.147-20.779t-20.779-50.147 20.779-50.147 50.147-20.779 50.147 20.779 20.779 50.147v319.169z" horiz-adv-x="568" />
<glyph unicode="&#xe0b7;" d="M390.095 89.905h-40.173t-40.173 0.554q-3.325-1.108-18.286 6.095-7.757 2.216-7.757-2.216-0.554-3.325 0-10.251t0-12.19-2.771-9.697q-6.649-11.082-19.948-6.926t-12.744 16.901v88.658h-125.784q-8.311 0.554-13.022 7.757t-2.493 15.238 10.528 10.805q1.108 2.216 17.732 1.94t18.285-0.277h94.753v46.269t0.554 45.714q1.108 8.866 8.588 12.468t15.515 0.554 10.251-10.805q0.554-2.216 0.554-16.623v-16.070q7.757 4.433 17.454 6.649t16.623 2.494 19.117 0.277h53.472t16.623-2.216 16.901-6.095q18.84-9.974 28.814-29.368t8.312-41.004v-12.745t-0.277-14.407-1.108-12.467-3.048-13.298-6.095-11.36q-8.866-16.070-25.489-25.212t-34.909-9.143zM390.095 231.757h-38.234t-38.234-0.554q-17.731-1.662-26.32-19.117t0.831-32.969q4.987-9.974 15.792-14.684t22.995-3.601h34.355t34.355 0.554q17.731 1.663 26.32 19.117t-0.831 32.969q-4.433 8.312-13.022 13.298t-18.009 4.987z" horiz-adv-x="568" />
<glyph unicode="&#xe0b8;" d="M407.827 160.831h-88.658v-124.121q0-7.204-5.264-12.467t-12.467-5.264-12.467 5.264-5.264 12.467v124.121h-88.658q-7.203 0-12.468 5.264t-5.264 12.467 5.264 12.467 12.468 5.264h27.151q-9.42 16.623-9.42 35.463v70.927q0 29.368 20.779 50.147t50.147 20.779h35.463q29.368 0 50.147-20.779t20.779-50.147v-70.927q0-18.84-9.42-35.463h27.151q7.204 0 12.467-5.264t5.264-12.467-5.264-12.467-12.467-5.264zM319.169 302.684q0 14.961-10.251 25.212t-25.212 10.251-25.212-10.251-10.251-25.212v-70.926q0-14.407 10.251-24.935t25.212-10.528 25.212 10.528 10.251 24.935v70.926z" horiz-adv-x="568" />
<glyph unicode="&#xe0b9;" d="M390.095 385.247v-63.169q39.896-26.043 63.446-68.71t23.55-92.537q0-52.64-25.766-97.247t-70.373-70.373-97.247-25.766-97.247 25.766-70.373 70.373-25.766 97.247q0 49.87 23.55 92.537t63.446 68.71v63.169q-63.723-30.476-102.788-90.875t-39.065-133.541q0-50.424 19.671-96.416t52.917-79.238 79.238-52.918 96.416-19.671 96.416 19.671 79.238 52.918 52.918 79.238 19.671 96.416q0 73.143-39.065 133.541t-102.788 90.875zM283.705 160.831q14.961 0 25.212 10.251t10.251 25.212v248.243q0 14.961-10.251 25.212t-25.212 10.251-25.212-10.251-10.251-25.212v-248.243q0-14.961 10.251-25.212t25.212-10.251z" horiz-adv-x="568" />
<glyph unicode="&#xe0ba;" d="M514.77 125.368h-459.913q-22.165 0-37.679 15.515t-15.515 37.68 15.515 37.68 37.679 15.515h459.913q21.611 0 37.125-15.515t15.515-37.68-15.515-37.68-37.125-15.515zM513.108 196.295h-159.030v-35.463h159.030q7.203 0 12.467 5.264t5.264 12.467-5.264 12.467-12.467 5.264zM514.77 302.13h-459.913q-22.165 0-37.679 15.515t-15.515 37.679 15.515 37.68 37.679 15.515h459.913q21.611 0 37.125-15.515t15.515-37.68-15.515-37.679-37.125-15.515zM513.108 373.057h-265.42v-35.463h265.42q7.203 0 12.467 5.264t5.264 12.468-5.264 12.467-12.467 5.264zM54.857 54.995h459.913q21.611 0 37.125-15.792t15.515-37.68-15.515-37.403-37.125-15.515h-459.913q-22.165 0-37.679 15.515t-15.515 37.403 15.515 37.68 37.679 15.792zM177.316-15.93h335.792q7.203 0 12.467 5.264t5.264 12.467-5.264 12.467-12.467 5.264h-335.792v-35.463z" horiz-adv-x="568" />
<glyph unicode="&#xe0bb;" d="M319.169-16.485v106.389q0 14.961-10.251 25.212t-25.212 10.251-25.212-10.251-10.251-25.212v-106.389h-177.316l106.389 425.558h70.927v-35.463q0-14.961 10.251-25.212t25.212-10.251 25.212 10.251 10.251 25.212v35.463h70.927l106.389-425.558h-177.316zM319.169 267.221q0 14.961-10.251 25.212t-25.212 10.251-25.212-10.251-10.251-25.212v-70.927q0-14.961 10.251-25.212t25.212-10.251 25.212 10.251 10.251 25.212v70.927z" horiz-adv-x="568" />
<glyph unicode="&#xe0bc;" d="M115.255 95.446v-67.601h67.602q0 28.26-19.671 47.93t-47.93 19.671zM115.255 231.203v-68.156q55.966 0 95.585-39.619t39.619-95.584h68.156q0 55.411-27.428 101.957t-73.974 73.974-101.957 27.428zM115.255 366.407v-67.601q54.857 0 105.004-21.611t86.442-57.905 57.905-86.442 21.611-105.005h67.601q0 68.71-26.875 131.601t-72.034 108.052-108.052 72.034-131.601 26.875z" horiz-adv-x="568" />
<glyph unicode="&#xe0bd;" d="M461.022-16.485h-354.632q-14.961 0-25.212 10.251t-10.251 25.212v354.632q0 14.961 10.251 25.212t25.212 10.251h35.463v-141.853q0-14.961 10.251-25.212t25.212-10.251h141.853q14.961 0 25.212 10.251t10.251 25.212v141.853h35.463q44.329 0 75.359-31.308t31.031-75.082v-283.705q0-14.961-10.251-25.212t-25.212-10.251zM425.558 125.368q0 14.961-10.251 25.212t-25.212 10.251h-212.779q-14.961 0-25.212-10.251t-10.251-25.212v-35.463q0-14.961 10.251-25.212t25.212-10.251h212.779q14.961 0 25.212 10.251t10.251 25.212v35.463zM248.243 338.147v-70.926h-35.463q-14.961 0-25.212 10.251t-10.251 25.212v70.927q0 14.961 10.251 25.212t25.212 10.251h70.927q14.961 0 25.212-10.251t10.251-25.212h-35.463q-14.961 0-25.212-10.251t-10.251-25.212z" horiz-adv-x="568" />
<glyph unicode="&#xe0be;" d="M141.853-16.485h-70.927q-14.961 0-25.212 10.251t-10.251 25.212v70.927q0 14.961 10.251 25.212t25.212 10.251h70.927q14.961 0 25.212-10.251t10.251-25.212v-70.927q0-14.961-10.251-25.212t-25.212-10.251zM319.169-16.485h-70.927q-14.961 0-25.212 10.251t-10.251 25.212v70.927q0 14.961 10.251 25.212t25.212 10.251h70.927q14.961 0 25.212-10.251t10.251-25.212v-70.927q0-14.961-10.251-25.212t-25.212-10.251zM496.485-16.485h-70.927q-14.961 0-25.212 10.251t-10.251 25.212v70.927q0 14.961 10.251 25.212t25.212 10.251h70.927q14.961 0 25.212-10.251t10.251-25.212v-70.927q0-14.961-10.251-25.212t-25.212-10.251zM478.753 160.831h-390.095q-7.204 0-12.468 5.264t-5.264 12.467 5.264 12.467 12.468 5.264h390.095q7.204 0 12.467-5.264t5.264-12.467-5.264-12.467-12.467-5.264zM319.169 231.757h-70.927q-14.961 0-25.212 10.251t-10.251 25.212v70.926q0 14.961 10.251 25.212t25.212 10.251h70.927q14.961 0 25.212-10.251t10.251-25.212v-70.926q0-14.961-10.251-25.212t-25.212-10.251z" horiz-adv-x="568" />
<glyph unicode="&#xe0bf;" d="M434.424 196.295l-201.143-200.589q-20.502-21.057-49.87-21.057t-50.424 21.057l-49.87 49.87q-21.056 21.057-21.056 50.424t21.056 50.424l200.589 200.589q9.974 9.974 35.186 19.117t52.64 14.13 52.64 3.325 35.186-11.637 11.637-35.186-3.325-52.64-14.13-52.641-19.117-35.186zM359.065 221.229l-50.424 50.424q-9.974 10.528-24.935 10.528t-24.935-10.528l-150.719-150.719q-10.528-10.528-10.528-25.212t10.528-24.658l50.424-50.424q9.974-10.528 24.935-10.528t24.935 10.528l150.719 150.719q10.528 9.974 10.528 24.935t-10.528 24.935zM434.147 346.736q-10.251 10.251-24.935 10.251t-25.212-10.251-10.528-24.935 10.528-25.212 25.212-10.528 24.935 10.528 10.251 25.212-10.251 24.935z" horiz-adv-x="568" />
</font>
</defs>
</svg>
